<svg xmlns="http://www.w3.org/2000/svg" xmlns:xlink="http://www.w3.org/1999/xlink" id="Layer_1" enable-background="new 0 0 100 100" viewBox="0 0 100 100"><symbol id="navbar_x5F_icon_x5F_back_1_" viewBox="-1 -24 25 24"><path fill="none" stroke="#fff" stroke-miterlimit="10" stroke-width="2" d="M18-19c0-0.4,0-0.5-0.3-0.3l-12,7c-0.3,0.2-0.2,0.5,0.1,0.6l11.9,7C18-4.5,18-4.7,18-5V-19z" opacity=".9"/><rect width="24" height="24" y="-24" fill="none"/><rect width="25" height="24" x="-1" y="-24" fill="none" display="none"/></symbol><symbol id="navbar_x5F_icon_x5F_home_1_" viewBox="0 -24 24 24"><g opacity=".9"><g id="XMLID_809_"><circle id="XMLID_814_" cx="12" cy="-12" r="6.9" fill="none" stroke="#fff" stroke-miterlimit="10" stroke-width="1.803"/></g></g><rect width="24" height="24" y="-24" fill="none"/><rect width="24" height="23" y="-24" fill="none" display="none"/></symbol><symbol id="navbar_x5F_icon_x5F_recents_1_" viewBox="0 -24 24 24"><path fill="none" stroke="#fff" stroke-miterlimit="10" stroke-width="2" d="M19-5.7C19-5.4,18.6-5,18.2-5H5.8C5.4-5,5-5.4,5-5.7v-12.6C5-18.6,5.4-19,5.8-19h12.4      c0.4,0,0.8,0.4,0.8,0.7V-5.7z" opacity=".9"/><rect width="24" height="24" y="-24" fill="none"/><rect width="24" height="23" y="-24" fill="none" display="none"/></symbol><symbol id="sysbar_x5F_status_2" viewBox="0 -24 360 24"><use id="XMLID_495_" width="360" height="24" y="-24" overflow="visible" xlink:href="#sysbar_x5F_status_x5F_used_x5F_light"/></symbol><symbol id="sysbar_x5F_status_x5F_used_x5F_light" viewBox="0 -24 360 24"><rect width="360" height="24" y="-24" fill="#010101" fill-opacity="0"/><rect width="40" height="16" x="312" y="-21" fill="none" opacity=".9"/><path fill="#fff" d="M266-19l8.8,10.9C274.5-7.8,271.1-5,266-5s-8.5-2.8-8.8-3.1L266-19L266-19L266-19L266-19L266-19z" opacity=".9"/><rect width="16" height="16" x="258" y="-20" fill="none"/><polygon fill="#fff" points="277 -19 291 -19 291 -5" opacity=".9"/><rect width="16" height="16" x="276" y="-20" fill="none"/><g><rect width="16" height="16" x="296" y="-20" fill="none"/><path fill="#fff" d="M306-6v1h-3v-1h-3v-13h9v13H306z" opacity=".9"/></g></symbol><path fill="#594454" d="M95.8,81.7h-1.5l-0.3-11H94c0.3,0,0.5-0.2,0.5-0.5s-0.2-0.5-0.5-0.5h-0.1l-0.4-12h0.2c0.3,0,0.5-0.2,0.5-0.5  s-0.2-0.5-0.5-0.5h-0.2l-0.2-8c0.3,0,0.5-0.2,0.5-0.5c0-0.3-0.2-0.5-0.5-0.5v-1.1c0-0.6-0.3-1.2-0.8-1.5L92.3,45v-0.7  c0-0.3-0.2-0.5-0.5-0.5s-0.5,0.2-0.5,0.5V45l-0.1,0.1c-0.5,0.3-0.8,0.9-0.8,1.5v1.1c-0.3,0-0.5,0.2-0.5,0.5c0,0.3,0.2,0.5,0.5,0.5  l-0.2,8h-0.2c-0.3,0-0.5,0.2-0.5,0.5s0.2,0.5,0.5,0.5H90l-0.4,12h-0.1c-0.3,0-0.5,0.2-0.5,0.5s0.2,0.5,0.5,0.5h0.1l-0.3,11H89h-3.7  L85,74.7h0c0.3,0,0.5-0.2,0.5-0.5s-0.2-0.5-0.5-0.5h-0.1l-0.3-7h0.1c0.3,0,0.5-0.2,0.5-0.5s-0.2-0.5-0.5-0.5h-0.2l-0.3-7  c0.3,0,0.5-0.2,0.5-0.5c0-0.3-0.2-0.5-0.5-0.5v-1.1c0-0.6-0.3-1.2-0.8-1.5L83.3,55v-0.7c0-0.3-0.2-0.5-0.5-0.5s-0.5,0.2-0.5,0.5V55  l-0.1,0.1c-0.5,0.3-0.8,0.9-0.8,1.5v1.1h0c-0.3,0-0.5,0.2-0.5,0.5s0.2,0.5,0.5,0.5h0l-0.3,7h-0.2c-0.3,0-0.5,0.2-0.5,0.5  s0.2,0.5,0.5,0.5h0.2l-0.3,7h-0.1c-0.3,0-0.5,0.2-0.5,0.5s0.2,0.5,0.5,0.5h0.1l-0.3,7.1h-4v-22v-0.5v-3c0-0.3-0.2-0.5-0.5-0.5  s-0.5,0.2-0.5,0.5v2.5h-1v-1c0-0.3-0.2-0.5-0.5-0.5s-0.5,0.2-0.5,0.5v1h-4.5h-1.5v-2.2c0,0,0,0,0,0l0.1-0.3c0.8-1.5,0.4-3.3-1-4.2  l-1.7-1.1v-1.6c0-0.3-0.2-0.5-0.5-0.5s-0.5,0.2-0.5,0.5v1.7L62.2,52c-1.4,0.9-1.8,2.8-1,4.2l0.1,0.1v2.4h-1v-1.5v-3c0,0,0-0.1,0-0.1  c2.1-4.5,0.8-10-3.3-12.9L50.8,37v-2.7c0-0.3-0.2-0.5-0.5-0.5s-0.5,0.2-0.5,0.5V37l-6.2,4.3c-4.1,2.9-5.5,8.3-3.3,12.9  c0,0,0,0.1,0,0.1v3v1.5h-1v-2.4l0.1-0.1c0.8-1.5,0.4-3.3-1-4.2l-1.6-1.1v-1.7c0-0.3-0.2-0.5-0.5-0.5s-0.5,0.2-0.5,0.5v1.6L34.1,52  c-1.4,0.9-1.8,2.8-1,4.2l0.1,0.3c0,0,0,0,0,0v2.2h-1.5h-4.5v-1c0-0.3-0.2-0.5-0.5-0.5s-0.5,0.2-0.5,0.5v1h-1v-2.5  c0-0.3-0.2-0.5-0.5-0.5s-0.5,0.2-0.5,0.5v3v0.5v22h-4L20,74.7H20c0.3,0,0.5-0.2,0.5-0.5s-0.2-0.5-0.5-0.5h-0.1l-0.3-7h0.2  c0.3,0,0.5-0.2,0.5-0.5s-0.2-0.5-0.5-0.5h-0.2l-0.3-7h0c0.3,0,0.5-0.2,0.5-0.5s-0.2-0.5-0.5-0.5h0v-1.1c0-0.6-0.3-1.2-0.8-1.5  L18.3,55v-0.7c0-0.3-0.2-0.5-0.5-0.5s-0.5,0.2-0.5,0.5V55l-0.2,0.1c-0.5,0.3-0.8,0.9-0.8,1.5v1.1c-0.3,0-0.5,0.2-0.5,0.5  c0,0.3,0.2,0.5,0.5,0.5l-0.3,7h-0.2c-0.3,0-0.5,0.2-0.5,0.5s0.2,0.5,0.5,0.5h0.1l-0.3,7h-0.1c-0.3,0-0.5,0.2-0.5,0.5  s0.2,0.5,0.5,0.5h0l-0.3,7.1H14h-2.7l-0.3-11H11c0.3,0,0.5-0.2,0.5-0.5s-0.2-0.5-0.5-0.5h-0.1l-0.4-12h0.2c0.3,0,0.5-0.2,0.5-0.5  s-0.2-0.5-0.5-0.5h-0.2l-0.2-8c0.3,0,0.5-0.2,0.5-0.5c0-0.3-0.2-0.5-0.5-0.5v-1.1c0-0.6-0.3-1.2-0.8-1.5L9.3,45v-0.7  c0-0.3-0.2-0.5-0.5-0.5S8.3,44,8.3,44.2V45l-0.2,0.1c-0.5,0.3-0.8,0.9-0.8,1.5v1.1c-0.3,0-0.5,0.2-0.5,0.5c0,0.3,0.2,0.5,0.5,0.5  l-0.2,8H6.8c-0.3,0-0.5,0.2-0.5,0.5s0.2,0.5,0.5,0.5H7l-0.4,12H6.5C6.3,69.7,6,70,6,70.2s0.2,0.5,0.5,0.5h0.1l-0.3,11H4.8  c-0.3,0-0.5,0.2-0.5,0.5s0.2,0.5,0.5,0.5h2h4H14h1.8h4h5h2h3h2h2h5h2h7h5h7h9h2h3h2h5h4H89h0.8h4h2c0.3,0,0.5-0.2,0.5-0.5  S96.1,81.7,95.8,81.7z M8.7,45.9l0.1-0.1l0.1,0.1c0.2,0.2,0.4,0.4,0.4,0.7v1.1h-1v-1.1C8.3,46.3,8.4,46.1,8.7,45.9z M8.3,48.7h1  l0.2,8H8L8.3,48.7z M8,57.7h1.6l0.4,12H7.6L8,57.7z M7.3,81.7l0.3-11h2.3l0.3,11H7.3z M82.3,56.6c0-0.3,0.1-0.5,0.4-0.7l0.1-0.1  l0.1,0.1c0.2,0.2,0.4,0.4,0.4,0.7v1.1h-1V56.6z M82.3,58.7h1l0.3,6.9H82L82.3,58.7z M81.9,66.7h1.7l0.3,7h-2.3L81.9,66.7z   M73.3,70.7h-2v-5.4c0-0.5,0.3-1,0.7-1.3l0.3-0.2l0.3,0.2c0.4,0.3,0.7,0.7,0.7,1.3V70.7z M73.1,63.2l-0.6-0.4  c-0.2-0.1-0.4-0.1-0.5,0l-0.6,0.4c-0.7,0.5-1.2,1.2-1.2,2.1v5.4h-1v-8.9h6v8.9h-1v-5.4C74.3,64.4,73.9,63.7,73.1,63.2z M62.3,70.7  v-4c0-1,0.5-1.9,1.3-2.4l0.7-0.4l0.7,0.5c0.8,0.5,1.3,1.4,1.3,2.4v4H62.3z M65.5,63.4l-1-0.6c-0.2-0.1-0.4-0.1-0.5,0l-1,0.6  c-1.1,0.7-1.8,1.9-1.8,3.2v4.1h-1v-8.9h8v8.9h-1v-4.1C67.3,65.4,66.6,64.2,65.5,63.4z M58.3,55.7c-0.3,0-0.5,0.2-0.5,0.5v0.5h-1  v-0.5c0-0.3-0.2-0.5-0.5-0.5s-0.5,0.2-0.5,0.5v0.5h-1v-0.5c0-0.3-0.2-0.5-0.5-0.5s-0.5,0.2-0.5,0.5v0.5h-1v-0.5  c0-0.3-0.2-0.5-0.5-0.5s-0.5,0.2-0.5,0.5v0.5h-1v-0.5c0-0.3-0.2-0.5-0.5-0.5s-0.5,0.2-0.5,0.5v0.5h-1v-0.5c0-0.3-0.2-0.5-0.5-0.5  s-0.5,0.2-0.5,0.5v0.5h-1v-0.5c0-0.3-0.2-0.5-0.5-0.5s-0.5,0.2-0.5,0.5v0.5h-1v-0.5c0-0.3-0.2-0.5-0.5-0.5s-0.5,0.2-0.5,0.5v0.5h-1  v-0.5c0-0.3-0.2-0.5-0.5-0.5s-0.5,0.2-0.5,0.5v0.5h-0.5v-2h18v2h-0.5v-0.5C58.8,56,58.6,55.7,58.3,55.7z M38.3,70.7h-4v-4.1  c0-1,0.5-1.9,1.3-2.4l0.7-0.5l0.7,0.4c0.8,0.5,1.3,1.4,1.3,2.4V70.7z M37.5,63.4l-1-0.6c-0.2-0.1-0.4-0.1-0.5,0l-1,0.6  c-1.1,0.7-1.8,1.9-1.8,3.2v4.1H33h-0.8v-8.9h8v8.9h-1v-4.1C39.3,65.4,38.6,64.1,37.5,63.4z M29.3,70.7h-2v-5.4c0-0.5,0.3-1,0.7-1.3  l0.3-0.2l0.3,0.2c0.4,0.3,0.7,0.8,0.7,1.3V70.7z M29.1,63.2l-0.6-0.4c-0.2-0.1-0.4-0.1-0.5,0l-0.6,0.4c-0.7,0.5-1.1,1.2-1.1,2.1v5.4  h-1v-8.9h6v8.9h-1v-5.4C30.3,64.4,29.9,63.6,29.1,63.2z M75.3,60.8h-6v-1.1h6V60.8z M62.8,52.8l1.6-1.1l1.6,1.1  c1,0.6,1.2,1.9,0.7,2.9l-2.2,0h0h-2.2l0,0C61.6,54.7,61.9,53.5,62.8,52.8z M62.3,56.7h2.1h0h1.9v2h-1.5v-0.5c0-0.3-0.2-0.5-0.5-0.5  s-0.5,0.2-0.5,0.5v0.5h-1.5V56.7z M61.8,59.7h5h1.5v1.1h-8v-1.1H61.8z M47.6,39.7l2.7-1.9l2.7,1.9H47.6z M44.2,42.1l1.7-1.2v0.3  c0,0.3,0.2,0.5,0.5,0.5s0.5-0.2,0.5-0.5v-0.5h1v0.5c0,0.3,0.2,0.5,0.5,0.5s0.5-0.2,0.5-0.5v-0.5h1v0.5c0,0.3,0.2,0.5,0.5,0.5  s0.5-0.2,0.5-0.5v-0.5h1v0.5c0,0.3,0.2,0.5,0.5,0.5s0.5-0.2,0.5-0.5v-0.5h1v0.5c0,0.3,0.2,0.5,0.5,0.5s0.5-0.2,0.5-0.5V41l1.6,1.1  c3.7,2.6,4.9,7.5,3,11.6H41.2C39.3,49.6,40.5,44.7,44.2,42.1z M40.3,60.8h-8v-1.1h1.5h5h1.5V60.8z M34.7,52.8l1.6-1.1l1.6,1.1  c1,0.6,1.2,1.9,0.7,2.9l-2.2,0h0H34l0,0C33.4,54.7,33.7,53.5,34.7,52.8z M34.3,56.7h1.9h0h2.1v2h-1.5v-0.5c0-0.3-0.2-0.5-0.5-0.5  s-0.5,0.2-0.5,0.5v0.5h-1.5V56.7z M31.3,60.8h-6v-1.1h6V60.8z M17.7,55.9l0.1-0.1l0.1,0.1c0.2,0.2,0.4,0.4,0.4,0.7v1.1h-1v-1.1  C17.3,56.3,17.4,56.1,17.7,55.9z M17.3,58.7h1l0.3,6.9H17L17.3,58.7z M16.9,66.7h1.7l0.3,7h-2.3L16.9,66.7z M16.3,81.7l0.3-7.1H19  l0.3,7.1H16.3z M25.3,71.7h1.5h3h1.5v10h-1v-5.4c0-0.9-0.4-1.6-1.2-2.1l-0.6-0.4c-0.2-0.1-0.4-0.1-0.5,0l-0.6,0.4  c-0.7,0.5-1.1,1.2-1.1,2.1v5.4h-1V71.7z M27.3,81.7v-5.4c0-0.5,0.3-1,0.7-1.3l0.3-0.2l0.3,0.2c0.4,0.3,0.7,0.8,0.7,1.3v5.4H27.3z   M32.3,71.7H33h0.8h5h1.5v10h-1v-4.1c0-1.3-0.7-2.5-1.8-3.2l-1-0.6c-0.2-0.1-0.4-0.1-0.5,0l-1,0.6c-1.1,0.7-1.8,1.9-1.8,3.2v4.1h-1  V71.7z M34.3,81.7v-4.1c0-1,0.5-1.9,1.3-2.4l0.7-0.5l0.7,0.4c0.8,0.5,1.3,1.4,1.3,2.4v4.1H34.3z M41.3,59.2v-1.5h18v1.5v22.5h-2  V70.1c0-3.2-1.6-6-4.2-7.7l-2.5-1.6c-0.2-0.1-0.4-0.1-0.5,0l-2.5,1.6c-2.6,1.7-4.2,4.6-4.2,7.7v11.6h-2V59.2z M47.3,81.7h-3v-10h3.5  h5h3.5v10h-3v-4.1c0-1.3-0.7-2.5-1.8-3.2l-1-0.6c-0.2-0.1-0.4-0.1-0.5,0l-1,0.6c-1.1,0.7-1.8,1.9-1.8,3.2V81.7z M56.3,70.7h-3v-2.1  c0-1.3-0.7-2.5-1.8-3.2l-1-0.6c-0.2-0.1-0.4-0.1-0.5,0l-1,0.6c-1.1,0.7-1.8,1.9-1.8,3.2v2.1h-3v-0.6c0-2.8,1.4-5.4,3.8-6.9l2.3-1.4  l2.2,1.4c2.4,1.5,3.8,4.1,3.8,6.9V70.7z M52.3,70.7h-4v-2.1c0-1,0.5-1.9,1.3-2.4l0.7-0.5l0.7,0.4c0.8,0.5,1.3,1.4,1.3,2.4V70.7z   M48.3,81.7v-4.1c0-1,0.5-1.9,1.3-2.4l0.7-0.5l0.7,0.4c0.8,0.5,1.3,1.4,1.3,2.4v4.1H48.3z M60.3,71.7h8v10h-1v-4.1  c0-1.3-0.7-2.5-1.8-3.2l-1-0.6c-0.2-0.1-0.4-0.1-0.5,0l-1,0.6c-1.1,0.7-1.8,1.9-1.8,3.2v4.1h-1V71.7z M66.3,81.7h-4v-4.1  c0-1,0.5-1.9,1.3-2.4l0.7-0.4l0.7,0.5c0.8,0.5,1.3,1.4,1.3,2.4V81.7z M71.3,81.7v-5.4c0-0.5,0.3-1,0.7-1.3l0.3-0.2l0.3,0.2  c0.4,0.3,0.7,0.7,0.7,1.3v5.4H71.3z M74.3,81.7v-5.4c0-0.9-0.4-1.6-1.1-2.1l-0.6-0.4c-0.2-0.1-0.4-0.1-0.5,0l-0.6,0.4  c-0.7,0.5-1.2,1.2-1.2,2.1v5.4h-1v-10h1.5h3h1.5v10H74.3z M81.3,81.7l0.3-7.1H84l0.3,7.1H81.3z M92.3,47.7h-1v-1.1  c0-0.3,0.1-0.5,0.4-0.7l0.1-0.1l0.1,0.1c0.2,0.2,0.4,0.4,0.4,0.7V47.7z M91.3,48.7h1l0.2,8H91L91.3,48.7z M91,57.7h1.6l0.4,12h-2.3  L91,57.7z M90.3,81.7l0.3-11H93l0.3,11H90.3z"/></svg>