<svg xmlns="http://www.w3.org/2000/svg" xmlns:xlink="http://www.w3.org/1999/xlink" id="Layer_1" enable-background="new 0 0 100 100" viewBox="0 0 100 100"><symbol id="navbar_x5F_icon_x5F_back_1_" viewBox="-1 -24 25 24"><path fill="none" stroke="#fff" stroke-miterlimit="10" stroke-width="2" d="M18-19c0-0.4,0-0.5-0.3-0.3l-12,7c-0.3,0.2-0.2,0.5,0.1,0.6l11.9,7C18-4.5,18-4.7,18-5V-19z" opacity=".9"/><rect width="24" height="24" y="-24" fill="none"/><rect width="25" height="24" x="-1" y="-24" fill="none" display="none"/></symbol><symbol id="navbar_x5F_icon_x5F_home_1_" viewBox="0 -24 24 24"><g opacity=".9"><g id="XMLID_809_"><circle id="XMLID_814_" cx="12" cy="-12" r="6.9" fill="none" stroke="#fff" stroke-miterlimit="10" stroke-width="1.803"/></g></g><rect width="24" height="24" y="-24" fill="none"/><rect width="24" height="23" y="-24" fill="none" display="none"/></symbol><symbol id="navbar_x5F_icon_x5F_recents_1_" viewBox="0 -24 24 24"><path fill="none" stroke="#fff" stroke-miterlimit="10" stroke-width="2" d="M19-5.7C19-5.4,18.6-5,18.2-5H5.8C5.4-5,5-5.4,5-5.7v-12.6C5-18.6,5.4-19,5.8-19h12.4      c0.4,0,0.8,0.4,0.8,0.7V-5.7z" opacity=".9"/><rect width="24" height="24" y="-24" fill="none"/><rect width="24" height="23" y="-24" fill="none" display="none"/></symbol><symbol id="sysbar_x5F_status_2" viewBox="0 -24 360 24"><use id="XMLID_495_" width="360" height="24" y="-24" overflow="visible" xlink:href="#sysbar_x5F_status_x5F_used_x5F_light"/></symbol><symbol id="sysbar_x5F_status_x5F_used_x5F_light" viewBox="0 -24 360 24"><rect width="360" height="24" y="-24" fill="#010101" fill-opacity="0"/><rect width="40" height="16" x="312" y="-21" fill="none" opacity=".9"/><path fill="#fff" d="M266-19l8.8,10.9C274.5-7.8,271.1-5,266-5s-8.5-2.8-8.8-3.1L266-19L266-19L266-19L266-19L266-19z" opacity=".9"/><rect width="16" height="16" x="258" y="-20" fill="none"/><polygon fill="#fff" points="277 -19 291 -19 291 -5" opacity=".9"/><rect width="16" height="16" x="276" y="-20" fill="none"/><g><rect width="16" height="16" x="296" y="-20" fill="none"/><path fill="#fff" d="M306-6v1h-3v-1h-3v-13h9v13H306z" opacity=".9"/></g></symbol><path fill="#594454" d="M82.8,82h-1.5V68.5v-2v-5v-7v-7c0-1.1-0.5-2.1-1.4-2.8l-0.8-0.6c-0.2-0.1-0.4-0.1-0.6,0l-0.8,0.6   c-0.1,0.1-0.3,0.2-0.4,0.4v-2.4c0-1.1-0.6-2.1-1.5-2.7l-1.5-0.8v-1.7c0-0.3-0.2-0.5-0.5-0.5s-0.5,0.2-0.5,0.5v1.7l-1.5,0.8   c-0.2,0.1-0.4,0.3-0.5,0.4v-3c0-1.1-0.5-2.1-1.4-2.8l-0.8-0.6c-0.2-0.1-0.4-0.1-0.6,0l-0.8,0.6c-0.1,0.1-0.3,0.2-0.4,0.4v-0.6   c0-1.1-0.5-2.1-1.4-2.8l-0.8-0.6c-0.2-0.1-0.4-0.1-0.6,0l-0.8,0.6c-0.2,0.1-0.3,0.3-0.5,0.5c-0.2-0.9-0.7-1.7-1.5-2.1l-1.5-0.8   v-1.7c0-0.3-0.2-0.5-0.5-0.5s-0.5,0.2-0.5,0.5v1.7l-1.5,0.8c-0.2,0.1-0.4,0.3-0.6,0.4c0-1.1-0.5-2.1-1.4-2.8l-0.8-0.6   c-0.2-0.1-0.4-0.1-0.6,0l-0.8,0.6c-0.3,0.2-0.5,0.5-0.7,0.7c-0.3-0.6-0.7-1.1-1.2-1.4l-1.5-0.8v-1.7c0-0.3-0.2-0.5-0.5-0.5   s-0.5,0.2-0.5,0.5v1.7l-1.5,0.8c-0.6,0.3-1,0.8-1.2,1.4c-0.2-0.3-0.4-0.5-0.7-0.7l-0.8-0.6c-0.2-0.1-0.4-0.1-0.6,0l-0.8,0.6   c-0.9,0.6-1.4,1.7-1.4,2.8c-0.2-0.2-0.3-0.3-0.6-0.4l-1.5-0.8v-1.7c0-0.3-0.2-0.5-0.5-0.5s-0.5,0.2-0.5,0.5v1.7l-1.5,0.8   c-0.8,0.5-1.3,1.2-1.5,2.1c-0.1-0.2-0.3-0.3-0.5-0.5l-0.8-0.6c-0.2-0.1-0.4-0.1-0.6,0l-0.8,0.6c-0.9,0.7-1.4,1.7-1.4,2.8v0.6   c-0.1-0.1-0.3-0.3-0.4-0.4l-0.8-0.6c-0.2-0.1-0.4-0.1-0.6,0l-0.8,0.6c-0.9,0.7-1.4,1.7-1.4,2.8v3c-0.2-0.2-0.3-0.3-0.5-0.4   l-1.5-0.8v-1.7c0-0.3-0.2-0.5-0.5-0.5s-0.5,0.2-0.5,0.5v1.7l-1.5,0.8c-1,0.5-1.5,1.6-1.5,2.7v2.4c-0.1-0.1-0.3-0.3-0.4-0.4   l-0.8-0.6c-0.2-0.1-0.4-0.1-0.6,0l-0.8,0.6c-0.9,0.7-1.4,1.7-1.4,2.8v7v7v5v2V82h-1.5c-0.3,0-0.5,0.2-0.5,0.5s0.2,0.5,0.5,0.5h1.9   c0,0,0.1,0,0.1,0h4h6h4h4h6h4h6h4h6h4h4h6h4c0,0,0.1,0,0.1,0h1.9c0.3,0,0.5-0.2,0.5-0.5S83.1,82,82.8,82z M19.3,54.5   c0-0.8,0.4-1.5,1-2l0.5-0.4l0.5,0.4c0.6,0.5,1,1.2,1,2v4.6v0c-0.1-0.1-0.3-0.3-0.4-0.4l-0.8-0.6c-0.2-0.1-0.4-0.1-0.6,0l-0.8,0.6   c-0.1,0.1-0.3,0.2-0.4,0.4V54.5z M23.3,46.7c0-0.7,0.4-1.4,1-1.8l1.5-0.8l1.5,0.8c0.6,0.4,1,1.1,1,1.8v1.4v3.4   c-0.2-0.2-0.3-0.3-0.5-0.4l-1.7-1c-0.2-0.1-0.3-0.1-0.5,0l-1.7,1c-0.2,0.1-0.4,0.3-0.5,0.4v-3.4v-0.6V46.7z M23.3,53.7   c0-0.7,0.4-1.4,1-1.8l1.5-0.8l1.5,0.8c0.6,0.4,1,1.1,1,1.8v4.8c-0.2-0.2-0.3-0.3-0.5-0.4l-1.7-1c-0.2-0.1-0.3-0.1-0.5,0l-1.7,1   c-0.2,0.1-0.4,0.3-0.5,0.4v-4V53.7z M71.3,60.7c0-0.7,0.4-1.4,1-1.8l1.5-0.8l1.5,0.8c0.6,0.4,1,1.1,1,1.8v0.8V66h-5V60.7z    M76.3,54.5v4c-0.2-0.2-0.3-0.3-0.5-0.4l-1.7-1c-0.2-0.1-0.3-0.1-0.5,0l-1.7,1c-0.2,0.1-0.4,0.3-0.5,0.4v-4.8c0-0.7,0.4-1.4,1-1.8   l1.5-0.8l1.5,0.8c0.6,0.4,1,1.1,1,1.8V54.5z M70.3,53.7v3.4c-0.1-0.1-0.3-0.3-0.4-0.4l-0.8-0.6c-0.2-0.1-0.4-0.1-0.6,0l-0.8,0.6   c-0.1,0.1-0.3,0.2-0.4,0.4v-4.6c0-0.8,0.4-1.5,1-2l0.5-0.4l0.5,0.4c0.6,0.5,1,1.2,1,2V53.7z M66.3,52.5v4.6   c-0.1-0.1-0.3-0.3-0.4-0.4l-0.8-0.6c-0.2-0.1-0.4-0.1-0.6,0l-0.8,0.6c-0.1,0.1-0.3,0.2-0.4,0.4v-1v-4.6c0-0.8,0.4-1.5,1-2l0.5-0.4   l0.5,0.4c0.6,0.5,1,1.2,1,2V52.5z M57.3,66v-0.9v-5.4c0-0.7,0.4-1.4,1-1.8l1.5-0.8l1.5,0.8c0.6,0.4,1,1.1,1,1.8v5.4V66H57.3z    M62.3,51.5v4.6v1.4c-0.2-0.2-0.3-0.3-0.5-0.4l-1.7-1c-0.2-0.1-0.3-0.1-0.5,0l-1.7,1c-0.2,0.1-0.4,0.3-0.5,0.4v-1.4v-5.4   c0-0.7,0.4-1.4,1-1.8l1.5-0.8l1.5,0.8c0.6,0.4,1,1.1,1,1.8V51.5z M56.3,50.7v5.4v1c-0.1-0.1-0.3-0.3-0.4-0.4l-0.8-0.6   c-0.2-0.1-0.4-0.1-0.6,0l-0.8,0.6c-0.1,0.1-0.3,0.2-0.4,0.4v-2v-5.4v-0.2c0-0.8,0.4-1.5,1-2l0.5-0.4l0.5,0.4c0.6,0.5,1,1.2,1,2   V50.7z M47.3,66v-0.9v-4.6v-0.8c0-0.7,0.4-1.4,1-1.8l1.5-0.8l1.5,0.8c0.6,0.4,1,1.1,1,1.8v5.4V66H47.3z M52.3,55.1v2.4   c-0.2-0.2-0.3-0.3-0.5-0.4l-1.7-1c-0.2-0.1-0.3-0.1-0.5,0l-1.7,1c-0.2,0.1-0.4,0.3-0.5,0.4v-2.4v-4.6v-0.8c0-0.7,0.4-1.4,1-1.8   l1.5-0.8l1.5,0.8c0.6,0.4,1,1.1,1,1.8V55.1z M46.3,49.7v0.8v4.6v2c-0.1-0.1-0.3-0.3-0.4-0.4l-0.8-0.6c-0.2-0.1-0.4-0.1-0.6,0   l-0.8,0.6c-0.1,0.1-0.3,0.2-0.4,0.4v-1v-5.4v-0.2v-1c0-0.8,0.4-1.5,1-2l0.5-0.4l0.5,0.4c0.6,0.5,1,1.2,1,2V49.7z M37.3,66v-0.9   v-5.4c0-0.7,0.4-1.4,1-1.8l1.5-0.8l1.5,0.8c0.6,0.4,1,1.1,1,1.8v0.8v4.6V66H37.3z M42.3,56.1v1.4c-0.2-0.2-0.3-0.3-0.5-0.4l-1.7-1   c-0.2-0.1-0.3-0.1-0.5,0l-1.7,1c-0.2,0.1-0.4,0.3-0.5,0.4v-1.4v-4.6v-0.8c0-0.7,0.4-1.4,1-1.8l1.5-0.8l1.5,0.8c0.6,0.4,1,1.1,1,1.8   V56.1z M36.3,56.1v1c-0.1-0.1-0.3-0.3-0.4-0.4l-0.8-0.6c-0.2-0.1-0.4-0.1-0.6,0l-0.8,0.6c-0.1,0.1-0.3,0.2-0.4,0.4v-4.6v-1   c0-0.8,0.4-1.5,1-2l0.5-0.4l0.5,0.4c0.6,0.5,1,1.2,1,2V56.1z M32.3,57.1c-0.1-0.1-0.3-0.3-0.4-0.4l-0.8-0.6c-0.2-0.1-0.4-0.1-0.6,0   l-0.8,0.6c-0.1,0.1-0.3,0.2-0.4,0.4v-3.4v-1.2c0-0.8,0.4-1.5,1-2l0.5-0.4l0.5,0.4c0.6,0.5,1,1.2,1,2V57.1z M23.3,61.5v-0.8   c0-0.7,0.4-1.4,1-1.8l1.5-0.8l1.5,0.8c0.6,0.4,1,1.1,1,1.8V66h-5V61.5z M23.3,68.5V67h5v3.1C28,70,27.8,70,27.5,70   c-0.3-0.6-1-1-1.7-1s-1.4,0.4-1.7,1c-0.3-0.1-0.5,0-0.8,0.1V68.5z M29.3,60.7v-1.2c0-0.8,0.4-1.5,1-2l0.5-0.4l0.5,0.4   c0.6,0.5,1,1.2,1,2V66h-3V60.7z M33.3,59.5c0-0.8,0.4-1.5,1-2l0.5-0.4l0.5,0.4c0.6,0.5,1,1.2,1,2v0.2v5.4V66h-3V59.5z M37.3,67h5   v3.1C42,70,41.8,70,41.5,70c-0.3-0.6-1-1-1.7-1s-1.4,0.4-1.7,1c-0.3-0.1-0.5,0-0.8,0.1V67z M43.3,65.1v-4.6v-0.8v-0.2   c0-0.8,0.4-1.5,1-2l0.5-0.4l0.5,0.4c0.6,0.5,1,1.2,1,2v0.2v0.8v4.6V66h-3V65.1z M47.3,67h5v3.1C52,70,51.8,70,51.5,70   c-0.3-0.6-1-1-1.7-1s-1.4,0.4-1.7,1c-0.3-0.1-0.5,0-0.8,0.1V67z M53.3,65.1v-5.4v-0.2c0-0.8,0.4-1.5,1-2l0.5-0.4l0.5,0.4   c0.6,0.5,1,1.2,1,2v0.2v5.4V66h-3V65.1z M57.3,67h5v3.1C62,70,61.8,70,61.5,70c-0.3-0.6-1-1-1.7-1s-1.4,0.4-1.7,1   c-0.3-0.1-0.5,0-0.8,0.1V67z M63.3,65.1v-5.4v-0.2c0-0.8,0.4-1.5,1-2l0.5-0.4l0.5,0.4c0.6,0.5,1,1.2,1,2V66h-3V65.1z M67.3,59.5   c0-0.8,0.4-1.5,1-2l0.5-0.4l0.5,0.4c0.6,0.5,1,1.2,1,2v1.2V66h-3V59.5z M71.3,67h5v1.5v1.6C76,70,75.8,70,75.5,70   c-0.3-0.6-1-1-1.7-1s-1.4,0.4-1.7,1c-0.3-0.1-0.5,0-0.8,0.1V67z M77.3,61.5c0-0.8,0.4-1.5,1-2l0.5-0.4l0.5,0.4c0.6,0.5,1,1.2,1,2   V66h-3V61.5z M80.3,59.1c-0.1-0.1-0.3-0.3-0.4-0.4l-0.8-0.6c-0.2-0.1-0.4-0.1-0.6,0l-0.8,0.6c-0.1,0.1-0.3,0.2-0.4,0.4v0v-4.6   c0-0.8,0.4-1.5,1-2l0.5-0.4l0.5,0.4c0.6,0.5,1,1.2,1,2V59.1z M76.3,47.5v0.6v3.4c-0.2-0.2-0.3-0.3-0.5-0.4l-1.7-1   c-0.2-0.1-0.3-0.1-0.5,0l-1.7,1c-0.2,0.1-0.4,0.3-0.5,0.4v-3.4v-1.4c0-0.7,0.4-1.4,1-1.8l1.5-0.8l1.5,0.8c0.6,0.4,1,1.1,1,1.8V47.5   z M70.3,46.7v1.4v2c-0.1-0.1-0.3-0.3-0.4-0.4l-0.8-0.6c-0.2-0.1-0.4-0.1-0.6,0l-0.8,0.6c-0.1,0.1-0.3,0.2-0.4,0.4v-5.6   c0-0.8,0.4-1.5,1-2l0.5-0.4l0.5,0.4c0.6,0.5,1,1.2,1,2V46.7z M66.3,44.5v4.6c-0.1-0.1-0.3-0.3-0.4-0.4l-0.8-0.6   c-0.2-0.1-0.4-0.1-0.6,0l-0.8,0.6c-0.1,0.1-0.3,0.2-0.4,0.4v-2v-3.6c0-0.8,0.4-1.5,1-2l0.5-0.4l0.5,0.4c0.6,0.5,1,1.2,1,2V44.5z    M62.3,43.5v3.6v1.4c-0.2-0.2-0.3-0.3-0.5-0.4l-1.7-1c-0.2-0.1-0.3-0.1-0.5,0l-1.7,1c-0.2,0.1-0.4,0.3-0.5,0.4v-1.4v-5.4   c0-0.7,0.4-1.4,1-1.8l1.5-0.8l1.5,0.8c0.6,0.4,1,1.1,1,1.8V43.5z M56.3,41.5v0.2v5.4v0c-0.1-0.1-0.3-0.3-0.4-0.4l-0.8-0.6   c-0.2-0.1-0.4-0.1-0.6,0l-0.8,0.6c-0.1,0.1-0.3,0.2-0.4,0.4v-2v-3.6v-1c0-0.8,0.4-1.5,1-2l0.5-0.4l0.5,0.4c0.6,0.5,1,1.2,1,2V41.5z    M52.3,40.5v1v3.6v2.4c-0.2-0.2-0.3-0.3-0.5-0.4l-1.7-1c-0.2-0.1-0.3-0.1-0.5,0l-1.7,1c-0.2,0.1-0.4,0.3-0.5,0.4v-2.4v-4.6v-0.8   c0-0.7,0.4-1.4,1-1.8l1.5-0.8l1.5,0.8c0.6,0.4,1,1.1,1,1.8V40.5z M46.3,45.1v2c-0.1-0.1-0.3-0.3-0.4-0.4l-0.8-0.6   c-0.2-0.1-0.4-0.1-0.6,0l-0.8,0.6c-0.1,0.1-0.3,0.2-0.4,0.4v0v-5.4v-0.6v-0.6c0-0.8,0.4-1.5,1-2l0.5-0.4l0.5,0.4c0.6,0.5,1,1.2,1,2   V45.1z M42.3,47.1v1.4c-0.2-0.2-0.3-0.3-0.5-0.4l-1.7-1c-0.2-0.1-0.3-0.1-0.5,0l-1.7,1c-0.2,0.1-0.4,0.3-0.5,0.4v-1.4v-3.6v-1.8   c0-0.7,0.4-1.4,1-1.8l1.5-0.8l1.5,0.8c0.6,0.4,1,1.1,1,1.8V47.1z M36.3,47.1v2c-0.1-0.1-0.3-0.3-0.4-0.4l-0.8-0.6   c-0.2-0.1-0.4-0.1-0.6,0l-0.8,0.6c-0.1,0.1-0.3,0.2-0.4,0.4v-4.6v-1c0-0.8,0.4-1.5,1-2l0.5-0.4l0.5,0.4c0.6,0.5,1,1.2,1,2V47.1z    M32.3,50.1c-0.1-0.1-0.3-0.3-0.4-0.4l-0.8-0.6c-0.2-0.1-0.4-0.1-0.6,0l-0.8,0.6c-0.1,0.1-0.3,0.2-0.4,0.4v-2v-1.4v-2.2   c0-0.8,0.4-1.5,1-2l0.5-0.4l0.5,0.4c0.6,0.5,1,1.2,1,2V50.1z M19.3,61.5c0-0.8,0.4-1.5,1-2l0.5-0.4l0.5,0.4c0.6,0.5,1,1.2,1,2V66   h-3V61.5z M23.3,82V71.5c0-0.3,0.2-0.5,0.5-0.5c0.1,0,0.2,0,0.3,0.1c0.1,0.1,0.3,0.1,0.5,0c0.2-0.1,0.3-0.2,0.3-0.4   c0.1-0.5,0.5-0.8,1-0.8c0.5,0,0.9,0.3,1,0.8c0,0.2,0.1,0.3,0.3,0.4c0.2,0.1,0.3,0,0.5,0c0.1-0.1,0.2-0.1,0.3-0.1   c0.3,0,0.5,0.2,0.5,0.5V82H23.3z M29.3,82V67h3v15H29.3z M33.3,82V67h3v15H33.3z M37.3,82V71.5c0-0.3,0.2-0.5,0.5-0.5   c0.1,0,0.2,0,0.3,0.1c0.1,0.1,0.3,0.1,0.5,0c0.2-0.1,0.3-0.2,0.3-0.4c0.1-0.5,0.5-0.8,1-0.8c0.5,0,0.9,0.3,1,0.8   c0,0.2,0.1,0.3,0.3,0.4c0.1,0.1,0.3,0,0.5,0c0.1-0.1,0.2-0.1,0.3-0.1c0.3,0,0.5,0.2,0.5,0.5V82H37.3z M43.3,82V67h3v15H43.3z    M47.3,82V71.5c0-0.3,0.2-0.5,0.5-0.5c0.1,0,0.2,0,0.3,0.1c0.1,0.1,0.3,0.1,0.5,0c0.2-0.1,0.3-0.2,0.3-0.4c0.1-0.5,0.5-0.8,1-0.8   c0.5,0,0.9,0.3,1,0.8c0,0.2,0.1,0.3,0.3,0.4c0.1,0.1,0.3,0,0.5,0c0.1-0.1,0.2-0.1,0.3-0.1c0.3,0,0.5,0.2,0.5,0.5V82H47.3z M53.3,82   V67h3v15H53.3z M57.3,82V71.5c0-0.3,0.2-0.5,0.5-0.5c0.1,0,0.2,0,0.3,0.1c0.1,0.1,0.3,0.1,0.5,0c0.2-0.1,0.3-0.2,0.3-0.4   c0.1-0.5,0.5-0.8,1-0.8c0.5,0,0.9,0.3,1,0.8c0,0.2,0.1,0.3,0.3,0.4c0.1,0.1,0.3,0,0.5,0c0.1-0.1,0.2-0.1,0.3-0.1   c0.3,0,0.5,0.2,0.5,0.5V82H57.3z M63.3,82V67h3v15H63.3z M67.3,82V67h3v15H67.3z M71.3,82V71.5c0-0.3,0.2-0.5,0.5-0.5   c0.1,0,0.2,0,0.3,0.1c0.1,0.1,0.3,0.1,0.5,0c0.2-0.1,0.3-0.2,0.3-0.4c0.1-0.5,0.5-0.8,1-0.8c0.5,0,0.9,0.3,1,0.8   c0,0.2,0.1,0.3,0.3,0.4c0.1,0.1,0.3,0,0.5,0c0.1-0.1,0.2-0.1,0.3-0.1c0.3,0,0.5,0.2,0.5,0.5V82H71.3z M77.3,82V68.5V67h3v1.5V82   H77.3z M78.3,45.5l0.5-0.4l0.5,0.4c0.6,0.5,1,1.2,1,2v4.6c-0.1-0.1-0.3-0.3-0.4-0.4l-0.8-0.6c-0.2-0.1-0.4-0.1-0.6,0l-0.8,0.6   c-0.1,0.1-0.3,0.2-0.4,0.4v0v-4v-0.6C77.3,46.7,77.7,46,78.3,45.5z M72.3,40.9l1.5-0.8l1.5,0.8c0.6,0.4,1,1.1,1,1.8v1.8   c-0.2-0.2-0.3-0.3-0.5-0.4l-1.7-1c-0.2-0.1-0.3-0.1-0.5,0l-1.7,1c-0.2,0.1-0.4,0.3-0.5,0.4v-1.8C71.3,42,71.7,41.3,72.3,40.9z    M68.3,35.5l0.5-0.4l0.5,0.4c0.6,0.5,1,1.2,1,2v4.6c-0.1-0.1-0.3-0.3-0.4-0.4l-0.8-0.6c-0.2-0.1-0.4-0.1-0.6,0l-0.8,0.6   c-0.1,0.1-0.3,0.2-0.4,0.4v-0.6v-4C67.3,36.7,67.7,36,68.3,35.5z M64.3,32.5l0.5-0.4l0.5,0.4c0.6,0.5,1,1.2,1,2v3v3.6   c-0.1-0.1-0.3-0.3-0.4-0.4l-0.8-0.6c-0.2-0.1-0.4-0.1-0.6,0l-0.8,0.6c-0.1,0.1-0.3,0.2-0.4,0.4v-3v-3.6   C63.3,33.7,63.7,33,64.3,32.5z M58.3,30.9l1.5-0.8l1.5,0.8c0.6,0.4,1,1.1,1,1.8v1.8v3.6v1.4c-0.2-0.2-0.3-0.3-0.5-0.4l-1.7-1   c-0.2-0.1-0.3-0.1-0.5,0l-1.7,1c-0.2,0.1-0.4,0.3-0.5,0.4v-1.4v-5.4C57.3,32,57.7,31.3,58.3,30.9z M54.3,28.5l0.5-0.4l0.5,0.4   c0.6,0.5,1,1.2,1,2v2.2v5.4v0c-0.1-0.1-0.3-0.3-0.4-0.4l-0.8-0.6c-0.2-0.1-0.4-0.1-0.6,0l-0.8,0.6c-0.1,0.1-0.3,0.2-0.4,0.4v-3   v-4.6C53.3,29.7,53.7,29,54.3,28.5z M47.3,29.7c0-0.7,0.4-1.4,1-1.8l1.5-0.8l1.5,0.8c0.6,0.4,1,1.1,1,1.8v0.8v4.6v2.4   c-0.2-0.2-0.3-0.3-0.5-0.4l-1.7-1c-0.2-0.1-0.3-0.1-0.5,0l-1.7,1c-0.2,0.1-0.4,0.3-0.5,0.4v-2.4v-4.6V29.7z M43.3,30.5   c0-0.8,0.4-1.5,1-2l0.5-0.4l0.5,0.4c0.6,0.5,1,1.2,1,2v4.6v3c-0.1-0.1-0.3-0.3-0.4-0.4l-0.8-0.6c-0.2-0.1-0.4-0.1-0.6,0l-0.8,0.6   c-0.1,0.1-0.3,0.2-0.4,0.4v-0.6v-4.8V30.5z M37.3,32.7c0-0.7,0.4-1.4,1-1.8l1.5-0.8l1.5,0.8c0.6,0.4,1,1.1,1,1.8v4.8v2   c-0.2-0.2-0.3-0.3-0.5-0.4l-1.7-1c-0.2-0.1-0.3-0.1-0.5,0l-1.7,1c-0.2,0.1-0.4,0.3-0.5,0.4v-1.4v-3.6V32.7z M33.3,34.5   c0-0.8,0.4-1.5,1-2l0.5-0.4l0.5,0.4c0.6,0.5,1,1.2,1,2v3.6v3c-0.1-0.1-0.3-0.3-0.4-0.4l-0.8-0.6c-0.2-0.1-0.4-0.1-0.6,0l-0.8,0.6   c-0.1,0.1-0.3,0.2-0.4,0.4v-3.6V34.5z M30.3,35.5l0.5-0.4l0.5,0.4c0.6,0.5,1,1.2,1,2v4v0.6c-0.1-0.1-0.3-0.3-0.4-0.4l-0.8-0.6   c-0.2-0.1-0.4-0.1-0.6,0l-0.8,0.6c-0.1,0.1-0.3,0.2-0.4,0.4v-4.6C29.3,36.7,29.7,36,30.3,35.5z M24.3,40.9l1.5-0.8l1.5,0.8   c0.6,0.4,1,1.1,1,1.8v1.8c-0.2-0.2-0.3-0.3-0.5-0.4l-1.7-1c-0.2-0.1-0.3-0.1-0.5,0l-1.7,1c-0.2,0.1-0.4,0.3-0.5,0.4v-1.8   C23.3,42,23.7,41.3,24.3,40.9z M20.3,45.5l0.5-0.4l0.5,0.4c0.6,0.5,1,1.2,1,2v0.6v4v0c-0.1-0.1-0.3-0.3-0.4-0.4l-0.8-0.6   c-0.2-0.1-0.4-0.1-0.6,0l-0.8,0.6c-0.1,0.1-0.3,0.2-0.4,0.4v-4.6C19.3,46.7,19.7,46,20.3,45.5z M19.3,68.5V67h3v1.5V82h-3V68.5z"/><path fill="#594454" d="M24.8 49h2c.3 0 .5-.2.5-.5v-1.9c0-.5-.3-.9-.7-1.2L26 45.1c-.2-.1-.3-.1-.5 0L25 45.4c-.4.2-.7.7-.7 1.2v1.9C24.3 48.8 24.5 49 24.8 49zM25.3 46.6c0-.1.1-.2.2-.3l.3-.2.3.2c.1.1.2.2.2.3V48h-1V46.6zM50.6 58.4L50 58.1c-.2-.1-.3-.1-.5 0L49 58.4c-.4.2-.7.7-.7 1.2v1.9c0 .3.2.5.5.5h2c.3 0 .5-.2.5-.5v-1.9C51.3 59.1 51 58.6 50.6 58.4zM50.3 61h-1v-1.4c0-.1.1-.2.2-.3l.3-.2.3.2c.1.1.2.2.2.3V61zM50.6 38.4L50 38.1c-.2-.1-.3-.1-.5 0L49 38.4c-.4.2-.7.7-.7 1.2v1.9c0 .3.2.5.5.5h2c.3 0 .5-.2.5-.5v-1.9C51.3 39.1 51 38.6 50.6 38.4zM50.3 41h-1v-1.4c0-.1.1-.2.2-.3l.3-.2.3.2c.1.1.2.2.2.3V41zM48.8 32h2c.3 0 .5-.2.5-.5v-1.9c0-.5-.3-.9-.7-1.2L50 28.1c-.2-.1-.3-.1-.5 0L49 28.4c-.4.2-.7.7-.7 1.2v1.9C48.3 31.8 48.5 32 48.8 32zM49.3 29.6c0-.1.1-.2.2-.3l.3-.2.3.2c.1.1.2.2.2.3V31h-1V29.6zM58.8 35h2c.3 0 .5-.2.5-.5v-1.9c0-.5-.3-.9-.7-1.2L60 31.1c-.2-.1-.3-.1-.5 0L59 31.4c-.4.2-.7.7-.7 1.2v1.9C58.3 34.8 58.5 35 58.8 35zM59.3 32.6c0-.1.1-.2.2-.3l.3-.2.3.2c.1.1.2.2.2.3V34h-1V32.6zM60.6 40.4L60 40.1c-.2-.1-.3-.1-.5 0L59 40.4c-.4.2-.7.7-.7 1.2v1.9c0 .3.2.5.5.5h2c.3 0 .5-.2.5-.5v-1.9C61.3 41.1 61 40.6 60.6 40.4zM60.3 43h-1v-1.4c0-.1.1-.2.2-.3l.3-.2.3.2c.1.1.2.2.2.3V43zM60.6 58.4L60 58.1c-.2-.1-.3-.1-.5 0L59 58.4c-.4.2-.7.7-.7 1.2v1.9c0 .3.2.5.5.5h2c.3 0 .5-.2.5-.5v-1.9C61.3 59.1 61 58.6 60.6 58.4zM60.3 61h-1v-1.4c0-.1.1-.2.2-.3l.3-.2.3.2c.1.1.2.2.2.3V61zM38.8 35h2c.3 0 .5-.2.5-.5v-1.9c0-.5-.3-.9-.7-1.2L40 31.1c-.2-.1-.3-.1-.5 0L39 31.4c-.4.2-.7.7-.7 1.2v1.9C38.3 34.8 38.5 35 38.8 35zM39.3 32.6c0-.1.1-.2.2-.3l.3-.2.3.2c.1.1.2.2.2.3V34h-1V32.6zM40.6 40.4L40 40.1c-.2-.1-.3-.1-.5 0L39 40.4c-.4.2-.7.7-.7 1.2v1.9c0 .3.2.5.5.5h2c.3 0 .5-.2.5-.5v-1.9C41.3 41.1 41 40.6 40.6 40.4zM40.3 43h-1v-1.4c0-.1.1-.2.2-.3l.3-.2.3.2c.1.1.2.2.2.3V43zM40.6 58.4L40 58.1c-.2-.1-.3-.1-.5 0L39 58.4c-.4.2-.7.7-.7 1.2v1.9c0 .3.2.5.5.5h2c.3 0 .5-.2.5-.5v-1.9C41.3 59.1 41 58.6 40.6 58.4zM40.3 61h-1v-1.4c0-.1.1-.2.2-.3l.3-.2.3.2c.1.1.2.2.2.3V61zM74.6 59.4L74 59.1c-.2-.1-.3-.1-.5 0L73 59.4c-.4.2-.7.7-.7 1.2v1.9c0 .3.2.5.5.5h2c.3 0 .5-.2.5-.5v-1.9C75.3 60.1 75 59.6 74.6 59.4zM74.3 62h-1v-1.4c0-.1.1-.2.2-.3l.3-.2.3.2c.1.1.2.2.2.3V62zM74.6 45.4L74 45.1c-.2-.1-.3-.1-.5 0L73 45.4c-.4.2-.7.7-.7 1.2v1.9c0 .3.2.5.5.5h2c.3 0 .5-.2.5-.5v-1.9C75.3 46.1 75 45.6 74.6 45.4zM74.3 48h-1v-1.4c0-.1.1-.2.2-.3l.3-.2.3.2c.1.1.2.2.2.3V48zM40.8 73h-2c-.3 0-.5.2-.5.5v4c0 .3.2.5.5.5h2c.3 0 .5-.2.5-.5v-4C41.3 73.2 41.1 73 40.8 73zM40.3 77h-1v-3h1V77zM26.8 73h-2c-.3 0-.5.2-.5.5v4c0 .3.2.5.5.5h2c.3 0 .5-.2.5-.5v-4C27.3 73.2 27.1 73 26.8 73zM26.3 77h-1v-3h1V77zM50.8 73h-2c-.3 0-.5.2-.5.5v4c0 .3.2.5.5.5h2c.3 0 .5-.2.5-.5v-4C51.3 73.2 51.1 73 50.8 73zM50.3 77h-1v-3h1V77zM60.8 73h-2c-.3 0-.5.2-.5.5v4c0 .3.2.5.5.5h2c.3 0 .5-.2.5-.5v-4C61.3 73.2 61.1 73 60.8 73zM60.3 77h-1v-3h1V77zM74.8 73h-2c-.3 0-.5.2-.5.5v4c0 .3.2.5.5.5h2c.3 0 .5-.2.5-.5v-4C75.3 73.2 75.1 73 74.8 73zM74.3 77h-1v-3h1V77zM26.6 59.4L26 59.1c-.2-.1-.3-.1-.5 0L25 59.4c-.4.2-.7.7-.7 1.2v1.9c0 .3.2.5.5.5h2c.3 0 .5-.2.5-.5v-1.9C27.3 60.1 27 59.6 26.6 59.4zM26.3 62h-1v-1.4c0-.1.1-.2.2-.3l.3-.2.3.2c.1.1.2.2.2.3V62zM24.8 56h2c.3 0 .5-.2.5-.5v-1.9c0-.5-.3-.9-.7-1.2L26 52.1c-.2-.1-.3-.1-.5 0L25 52.4c-.4.2-.7.7-.7 1.2v1.9C24.3 55.8 24.5 56 24.8 56zM25.3 53.6c0-.1.1-.2.2-.3l.3-.2.3.2c.1.1.2.2.2.3V55h-1V53.6zM50.6 48.4L50 48.1c-.2-.1-.3-.1-.5 0L49 48.4c-.4.2-.7.7-.7 1.2v1.9c0 .3.2.5.5.5h2c.3 0 .5-.2.5-.5v-1.9C51.3 49.1 51 48.6 50.6 48.4zM50.3 51h-1v-1.4c0-.1.1-.2.2-.3l.3-.2.3.2c.1.1.2.2.2.3V51zM60.6 49.4L60 49.1c-.2-.1-.3-.1-.5 0L59 49.4c-.4.2-.7.7-.7 1.2v1.9c0 .3.2.5.5.5h2c.3 0 .5-.2.5-.5v-1.9C61.3 50.1 61 49.6 60.6 49.4zM60.3 52h-1v-1.4c0-.1.1-.2.2-.3l.3-.2.3.2c.1.1.2.2.2.3V52zM40.6 49.4L40 49.1c-.2-.1-.3-.1-.5 0L39 49.4c-.4.2-.7.7-.7 1.2v1.9c0 .3.2.5.5.5h2c.3 0 .5-.2.5-.5v-1.9C41.3 50.1 41 49.6 40.6 49.4zM40.3 52h-1v-1.4c0-.1.1-.2.2-.3l.3-.2.3.2c.1.1.2.2.2.3V52zM74.6 52.4L74 52.1c-.2-.1-.3-.1-.5 0L73 52.4c-.4.2-.7.7-.7 1.2v1.9c0 .3.2.5.5.5h2c.3 0 .5-.2.5-.5v-1.9C75.3 53.1 75 52.6 74.6 52.4zM74.3 55h-1v-1.4c0-.1.1-.2.2-.3l.3-.2.3.2c.1.1.2.2.2.3V55zM54.8 40c-.3 0-.5.2-.5.5v4c0 .3.2.5.5.5s.5-.2.5-.5v-4C55.3 40.2 55.1 40 54.8 40zM54.8 49c-.3 0-.5.2-.5.5v5c0 .3.2.5.5.5s.5-.2.5-.5v-5C55.3 49.2 55.1 49 54.8 49zM44.8 40c-.3 0-.5.2-.5.5v4c0 .3.2.5.5.5s.5-.2.5-.5v-4C45.3 40.2 45.1 40 44.8 40zM54.8 36c.3 0 .5-.2.5-.5v-5c0-.3-.2-.5-.5-.5s-.5.2-.5.5v5C54.3 35.8 54.5 36 54.8 36zM44.8 36c.3 0 .5-.2.5-.5v-5c0-.3-.2-.5-.5-.5s-.5.2-.5.5v5C44.3 35.8 44.5 36 44.8 36zM44.8 49c-.3 0-.5.2-.5.5v5c0 .3.2.5.5.5s.5-.2.5-.5v-5C45.3 49.2 45.1 49 44.8 49zM34.8 43c-.3 0-.5.2-.5.5v3c0 .3.2.5.5.5s.5-.2.5-.5v-3C35.3 43.2 35.1 43 34.8 43zM34.8 51c-.3 0-.5.2-.5.5v3c0 .3.2.5.5.5s.5-.2.5-.5v-3C35.3 51.2 35.1 51 34.8 51zM30.8 44c-.3 0-.5.2-.5.5v3c0 .3.2.5.5.5s.5-.2.5-.5v-3C31.3 44.2 31.1 44 30.8 44zM34.8 39c.3 0 .5-.2.5-.5v-4c0-.3-.2-.5-.5-.5s-.5.2-.5.5v4C34.3 38.8 34.5 39 34.8 39zM30.8 40c.3 0 .5-.2.5-.5v-2c0-.3-.2-.5-.5-.5s-.5.2-.5.5v2C30.3 39.8 30.5 40 30.8 40zM30.8 52c-.3 0-.5.2-.5.5v2c0 .3.2.5.5.5s.5-.2.5-.5v-2C31.3 52.2 31.1 52 30.8 52zM20.8 50c.3 0 .5-.2.5-.5v-2c0-.3-.2-.5-.5-.5s-.5.2-.5.5v2C20.3 49.8 20.5 50 20.8 50zM20.8 57c.3 0 .5-.2.5-.5v-2c0-.3-.2-.5-.5-.5s-.5.2-.5.5v2C20.3 56.8 20.5 57 20.8 57zM20.8 61c-.3 0-.5.2-.5.5v3c0 .3.2.5.5.5s.5-.2.5-.5v-3C21.3 61.2 21.1 61 20.8 61zM30.8 70c-.3 0-.5.2-.5.5v8c0 .3.2.5.5.5s.5-.2.5-.5v-8C31.3 70.2 31.1 70 30.8 70zM34.8 70c-.3 0-.5.2-.5.5v8c0 .3.2.5.5.5s.5-.2.5-.5v-8C35.3 70.2 35.1 70 34.8 70zM44.8 70c-.3 0-.5.2-.5.5v8c0 .3.2.5.5.5s.5-.2.5-.5v-8C45.3 70.2 45.1 70 44.8 70zM78.8 54c-.3 0-.5.2-.5.5v2c0 .3.2.5.5.5s.5-.2.5-.5v-2C79.3 54.2 79.1 54 78.8 54zM78.8 61c-.3 0-.5.2-.5.5v3c0 .3.2.5.5.5s.5-.2.5-.5v-3C79.3 61.2 79.1 61 78.8 61zM20.8 70c-.3 0-.5.2-.5.5v8c0 .3.2.5.5.5s.5-.2.5-.5v-8C21.3 70.2 21.1 70 20.8 70zM54.8 70c-.3 0-.5.2-.5.5v8c0 .3.2.5.5.5s.5-.2.5-.5v-8C55.3 70.2 55.1 70 54.8 70zM64.8 70c-.3 0-.5.2-.5.5v8c0 .3.2.5.5.5s.5-.2.5-.5v-8C65.3 70.2 65.1 70 64.8 70zM68.8 70c-.3 0-.5.2-.5.5v8c0 .3.2.5.5.5s.5-.2.5-.5v-8C69.3 70.2 69.1 70 68.8 70zM78.8 70c-.3 0-.5.2-.5.5v8c0 .3.2.5.5.5s.5-.2.5-.5v-8C79.3 70.2 79.1 70 78.8 70zM54.8 59c-.3 0-.5.2-.5.5v5c0 .3.2.5.5.5s.5-.2.5-.5v-5C55.3 59.2 55.1 59 54.8 59zM44.8 59c-.3 0-.5.2-.5.5v5c0 .3.2.5.5.5s.5-.2.5-.5v-5C45.3 59.2 45.1 59 44.8 59zM34.8 59c-.3 0-.5.2-.5.5v5c0 .3.2.5.5.5s.5-.2.5-.5v-5C35.3 59.2 35.1 59 34.8 59zM30.8 59c-.3 0-.5.2-.5.5v5c0 .3.2.5.5.5s.5-.2.5-.5v-5C31.3 59.2 31.1 59 30.8 59zM78.8 50c.3 0 .5-.2.5-.5v-2c0-.3-.2-.5-.5-.5s-.5.2-.5.5v2C78.3 49.8 78.5 50 78.8 50zM64.8 43c-.3 0-.5.2-.5.5v3c0 .3.2.5.5.5s.5-.2.5-.5v-3C65.3 43.2 65.1 43 64.8 43zM64.8 51c-.3 0-.5.2-.5.5v3c0 .3.2.5.5.5s.5-.2.5-.5v-3C65.3 51.2 65.1 51 64.8 51zM64.8 59c-.3 0-.5.2-.5.5v5c0 .3.2.5.5.5s.5-.2.5-.5v-5C65.3 59.2 65.1 59 64.8 59zM68.8 44c-.3 0-.5.2-.5.5v3c0 .3.2.5.5.5s.5-.2.5-.5v-3C69.3 44.2 69.1 44 68.8 44zM64.8 39c.3 0 .5-.2.5-.5v-4c0-.3-.2-.5-.5-.5s-.5.2-.5.5v4C64.3 38.8 64.5 39 64.8 39zM68.8 40c.3 0 .5-.2.5-.5v-2c0-.3-.2-.5-.5-.5s-.5.2-.5.5v2C68.3 39.8 68.5 40 68.8 40zM68.8 52c-.3 0-.5.2-.5.5v2c0 .3.2.5.5.5s.5-.2.5-.5v-2C69.3 52.2 69.1 52 68.8 52zM68.8 59c-.3 0-.5.2-.5.5v5c0 .3.2.5.5.5s.5-.2.5-.5v-5C69.3 59.2 69.1 59 68.8 59z"/></svg>