<svg xmlns="http://www.w3.org/2000/svg" xmlns:xlink="http://www.w3.org/1999/xlink" id="Layer_1" enable-background="new 0 0 100 100" viewBox="0 0 100 100"><symbol id="navbar_x5F_icon_x5F_back_1_" viewBox="-1 -24 25 24"><path fill="none" stroke="#fff" stroke-miterlimit="10" stroke-width="2" d="M18-19c0-0.4,0-0.5-0.3-0.3l-12,7c-0.3,0.2-0.2,0.5,0.1,0.6l11.9,7C18-4.5,18-4.7,18-5V-19z" opacity=".9"/><rect width="24" height="24" y="-24" fill="none"/><rect width="25" height="24" x="-1" y="-24" fill="none" display="none"/></symbol><symbol id="navbar_x5F_icon_x5F_home_1_" viewBox="0 -24 24 24"><g opacity=".9"><g id="XMLID_809_"><circle id="XMLID_814_" cx="12" cy="-12" r="6.9" fill="none" stroke="#fff" stroke-miterlimit="10" stroke-width="1.803"/></g></g><rect width="24" height="24" y="-24" fill="none"/><rect width="24" height="23" y="-24" fill="none" display="none"/></symbol><symbol id="navbar_x5F_icon_x5F_recents_1_" viewBox="0 -24 24 24"><path fill="none" stroke="#fff" stroke-miterlimit="10" stroke-width="2" d="M19-5.7C19-5.4,18.6-5,18.2-5H5.8C5.4-5,5-5.4,5-5.7v-12.6C5-18.6,5.4-19,5.8-19h12.4      c0.4,0,0.8,0.4,0.8,0.7V-5.7z" opacity=".9"/><rect width="24" height="24" y="-24" fill="none"/><rect width="24" height="23" y="-24" fill="none" display="none"/></symbol><symbol id="sysbar_x5F_status_2" viewBox="0 -24 360 24"><use id="XMLID_495_" width="360" height="24" y="-24" overflow="visible" xlink:href="#sysbar_x5F_status_x5F_used_x5F_light"/></symbol><symbol id="sysbar_x5F_status_x5F_used_x5F_light" viewBox="0 -24 360 24"><rect width="360" height="24" y="-24" fill="#010101" fill-opacity="0"/><rect width="40" height="16" x="312" y="-21" fill="none" opacity=".9"/><path fill="#fff" d="M266-19l8.8,10.9C274.5-7.8,271.1-5,266-5s-8.5-2.8-8.8-3.1L266-19L266-19L266-19L266-19L266-19z" opacity=".9"/><rect width="16" height="16" x="258" y="-20" fill="none"/><polygon fill="#fff" points="277 -19 291 -19 291 -5" opacity=".9"/><rect width="16" height="16" x="276" y="-20" fill="none"/><g><rect width="16" height="16" x="296" y="-20" fill="none"/><path fill="#fff" d="M306-6v1h-3v-1h-3v-13h9v13H306z" opacity=".9"/></g></symbol><path fill="#594454" d="M81.2 63.5h-9.8c3.1-1.6 5.3-4.8 5.3-8.5 0-1.5-.4-3.1-1.1-4.4 0-.1-.1-.3-.2-.3-.2-.1-.3-.1-.5 0 0 0 0 0 0 0 0 0 0 0 0 0 0 0 0 0-.1 0 0 0-.1.1-.1.1-.5.9-1.2 1.6-1.9 2.3.2-4.3 1.9-8.4 5-11.5.3.5.5 1.2.5 1.8 0 1.3-.7 2.5-1.8 3.1-.2.1-.3.4-.2.7.1.2.3.3.4.3.1 0 .2 0 .2-.1 1.4-.8 2.3-2.3 2.3-4 0-.8-.2-1.5-.6-2.1 0 0 .1 0 .1 0 .3.2.6.4.9.6.6.6 1 1.5 1 2.4 0 .3.2.5.5.5 0 0 0 0 0 0 .3 0 .5-.2.5-.5 0-1.2-.5-2.3-1.3-3.1-.5-.5-1.1-.9-1.8-1.1 0-.1-.1-.1-.1-.1-2-1.6-4.7-2.4-7.3-1.9-.3 0-.5.3-.4.6 0 .3.3.5.6.4 1.8-.3 3.7 0 5.3.9-.6-.2-1.2-.3-1.8-.3-2.3 0-4.4 1.3-5.4 3.4-.1.2 0 .5.2.7.1 0 .1 0 .2 0 .2 0 .4-.1.5-.3.8-1.7 2.6-2.8 4.5-2.8.5 0 .9.1 1.4.2-5.1 2.8-8.4 8.1-8.4 14.1 0 0 0 0 0 0h-1v-12c1.1-.2 2-1.2 2-2.5 0-.3-.2-.5-.5-.5s-.5.2-.5.5c0 .8-.6 1.4-1.4 1.5-1.8-.7-3.7-1.3-5.6-1.7v-1.7c0-.2-.2-.4-.4-.5-6.9-1.5-14.3-1.5-21.2 0-.2 0-.4.3-.4.5v1.7c-1.9.5-3.8 1-5.6 1.7-.8 0-1.4-.7-1.4-1.5 0-.3-.2-.5-.5-.5s-.5.2-.5.5c0 1.2.9 2.2 2 2.4v12h-1c0 0 0 0 0 0 0-6-3.2-11.3-8.4-14.1.4-.1.9-.2 1.4-.2 1.9 0 3.7 1.1 4.5 2.8.1.2.3.3.5.3.1 0 .1 0 .2 0 .2-.1.4-.4.2-.7-1-2.1-3.1-3.4-5.4-3.4-.6 0-1.2.1-1.8.3 1.6-.9 3.4-1.2 5.3-.9.3 0 .5-.1.6-.4s-.1-.5-.4-.6c-2.6-.4-5.3.3-7.3 1.9-.1 0-.1.1-.1.1-.7.2-1.3.6-1.8 1.1-.8.8-1.3 1.9-1.3 3.1 0 .3.2.5.5.5 0 0 0 0 0 0 .3 0 .5-.2.5-.5 0-.9.4-1.8 1-2.4.3-.3.5-.4.9-.6 0 0 .1 0 .1 0-.3.6-.6 1.4-.6 2.1 0 1.6.9 3.2 2.3 4 .1 0 .2.1.2.1.2 0 .3-.1.4-.3.1-.2 0-.5-.2-.7-1.1-.6-1.8-1.8-1.8-3.1 0-.7.2-1.3.5-1.8 3 3.1 4.8 7.2 5 11.5-.8-.6-1.4-1.4-1.9-2.2 0 0 0 0 0 0 0 0 0-.1-.1-.1 0 0 0 0-.1-.1 0 0 0 0 0 0 0 0 0 0 0 0 0 0-.1 0-.1 0 0 0 0 0-.1 0 0 0-.1 0-.1 0 0 0-.1 0-.1 0 0 0 0 0-.1 0 0 0 0 0 0 0 0 0 0 0-.1.1 0 0-.1.1-.1.1 0 0 0 0 0 0-.8 1.4-1.2 3-1.2 4.6 0 3.7 2.2 6.9 5.3 8.5h-9.8c-.3 0-.5.2-.5.5 0 .3.2.5.5.5h14 35 14c.3 0 .5-.2.5-.5C81.7 63.7 81.5 63.5 81.2 63.5zM69.6 49.5C69.6 49.5 69.6 49.5 69.6 49.5l2.6 0c-.1.7-.3 1.3-.3 2 0 0-.1 0-.1 0h-2.7C69.2 50.8 69.4 50.1 69.6 49.5zM71 46.5h2.1c-.3.7-.5 1.3-.7 2H70C70.3 47.8 70.6 47.1 71 46.5zM75.3 42.5h-.6c.4-.3.8-.6 1.2-.8C75.7 41.9 75.5 42.2 75.3 42.5zM73.5 43.5h1.1c-.4.6-.8 1.3-1.1 2h-1.8C72.3 44.8 72.9 44.1 73.5 43.5zM68.9 52.5h2.9c0 0 0 0 .1 0 0 .3 0 .6 0 .8l0 .1c-.9.5-1.9.9-3 1C68.8 53.8 68.8 53.1 68.9 52.5zM39.7 38.5c6.5-1.4 13.5-1.4 20 0v1c-3.3-.7-6.6-1.1-10-1.1-3.4 0-6.7.4-10 1.1V38.5zM33.7 42.4c5.1-1.9 10.5-2.9 16-2.9 5.5 0 10.9 1 16 2.9v12.1h-3v-6c0-1.7-1.3-3-3-3s-3 1.3-3 3v6h-3v-8c0-2.2-1.8-4-4-4s-4 1.8-4 4v8h-3v-6c0-1.7-1.3-3-3-3s-3 1.3-3 3v6h-3V42.4zM64.2 57.5c.8 0 1.5.7 1.5 1.5s-.7 1.5-1.5 1.5c-.8 0-1.5-.7-1.5-1.5S63.4 57.5 64.2 57.5zM61.7 54.5h-4v-6c0-1.1.9-2 2-2s2 .9 2 2V54.5zM55.2 57.5c.8 0 1.5.7 1.5 1.5s-.7 1.5-1.5 1.5-1.5-.7-1.5-1.5S54.4 57.5 55.2 57.5zM52.7 54.5h-6v-8c0-1.7 1.3-3 3-3s3 1.3 3 3V54.5zM44.2 57.5c.8 0 1.5.7 1.5 1.5s-.7 1.5-1.5 1.5-1.5-.7-1.5-1.5S43.4 57.5 44.2 57.5zM41.7 54.5h-4v-6c0-1.1.9-2 2-2s2 .9 2 2V54.5zM35.2 57.5c.8 0 1.5.7 1.5 1.5s-.7 1.5-1.5 1.5-1.5-.7-1.5-1.5S34.4 57.5 35.2 57.5zM29.5 48.5h-2.4c-.2-.7-.4-1.3-.7-2h2.1C28.9 47.1 29.2 47.8 29.5 48.5zM27.3 49.5h2.6c.2.6.4 1.3.5 2h-2.7c0 0-.1 0-.1 0C27.6 50.8 27.5 50.2 27.3 49.5zM27.8 45.5H26c-.3-.7-.7-1.4-1.1-2H26C26.6 44.1 27.2 44.8 27.8 45.5zM24.8 42.5h-.6c-.2-.3-.4-.6-.6-.8C24 41.9 24.4 42.2 24.8 42.5zM27.7 52.5C27.7 52.5 27.7 52.5 27.7 52.5l2.9 0c.1.6.1 1.3.1 1.9-1.1-.1-2.1-.5-3-1l0-.1C27.7 53.1 27.7 52.8 27.7 52.5zM32.2 63.5c-4.7 0-8.5-3.8-8.5-8.5 0-1.1.2-2.3.7-3.3.7.9 1.5 1.7 2.4 2.3.1.1.1.1.2.2 1.2.7 2.6 1.2 4 1.3 0 0 .1 0 .1 0 0 0 0 0 0 0 0 0 .1 0 .1 0 .1 0 .3 0 .4 0 0 0 0 0 0 0h1.5 1.5v1.1c-1.1.2-2 1.2-2 2.4 0 1.4 1.1 2.5 2.5 2.5s2.5-1.1 2.5-2.5c0-1.2-.9-2.2-2-2.4v-1.1h8v1.1c-1.1.2-2 1.2-2 2.4 0 1.4 1.1 2.5 2.5 2.5s2.5-1.1 2.5-2.5c0-1.2-.9-2.2-2-2.4v-1.1h10v1.1c-1.1.2-2 1.2-2 2.4 0 1.4 1.1 2.5 2.5 2.5s2.5-1.1 2.5-2.5c0-1.2-.9-2.2-2-2.4v-1.1h8v1.1c-1.1.2-2 1.2-2 2.4 0 1.4 1.1 2.5 2.5 2.5 1.4 0 2.5-1.1 2.5-2.5 0-1.2-.9-2.2-2-2.4v-1.1h1.5 1.5c.1 0 .3 0 .4 0 0 0 0 0 .1 0 0 0 0 0 0 0 0 0 .1 0 .1 0 2.7-.2 5.1-1.6 6.7-3.7.4 1 .7 2.2.7 3.3 0 4.7-3.8 8.5-8.5 8.5H32.2zM18.2 67.5h3c.3 0 .5-.2.5-.5s-.2-.5-.5-.5h-3c-.3 0-.5.2-.5.5S18 67.5 18.2 67.5zM55.2 67.5c.3 0 .5-.2.5-.5s-.2-.5-.5-.5h-5c-.3 0-.5.2-.5.5s.2.5.5.5H55.2zM81.2 67.5c.3 0 .5-.2.5-.5s-.2-.5-.5-.5h-23c-.3 0-.5.2-.5.5s.2.5.5.5H81.2zM47.2 66.5h-23c-.3 0-.5.2-.5.5s.2.5.5.5h23c.3 0 .5-.2.5-.5S47.5 66.5 47.2 66.5zM60.2 79.5h21c.3 0 .5-.2.5-.5s-.2-.5-.5-.5h-21c-.3 0-.5.2-.5.5S59.9 79.5 60.2 79.5zM26.2 78.5c-.3 0-.5.2-.5.5s.2.5.5.5h5c.3 0 .5-.2.5-.5s-.2-.5-.5-.5H26.2zM23.7 79c0-.3-.2-.5-.5-.5h-5c-.3 0-.5.2-.5.5s.2.5.5.5h5C23.5 79.5 23.7 79.3 23.7 79zM33.7 79c0 .3.2.5.5.5h23c.3 0 .5-.2.5-.5s-.2-.5-.5-.5h-23C33.9 78.5 33.7 78.7 33.7 79zM69.7 76c0-.3-.2-.5-.5-.5h-23c-.3 0-.5.2-.5.5s.2.5.5.5h23C69.5 76.5 69.7 76.3 69.7 76zM30.7 70c0 .3.2.5.5.5h40c.3 0 .5-.2.5-.5s-.2-.5-.5-.5h-40C31 69.5 30.7 69.7 30.7 70zM18.2 70.5h10c.3 0 .5-.2.5-.5s-.2-.5-.5-.5h-10c-.3 0-.5.2-.5.5S18 70.5 18.2 70.5zM81.2 69.5h-7c-.3 0-.5.2-.5.5s.2.5.5.5h7c.3 0 .5-.2.5-.5S81.5 69.5 81.2 69.5zM18.2 73.5h5c.3 0 .5-.2.5-.5s-.2-.5-.5-.5h-5c-.3 0-.5.2-.5.5S18 73.5 18.2 73.5zM79.2 76.5c.3 0 .5-.2.5-.5s-.2-.5-.5-.5h-7c-.3 0-.5.2-.5.5s.2.5.5.5H79.2zM38.2 76.5h5c.3 0 .5-.2.5-.5s-.2-.5-.5-.5h-5c-.3 0-.5.2-.5.5S38 76.5 38.2 76.5zM63.2 73.5c.3 0 .5-.2.5-.5s-.2-.5-.5-.5h-9c-.3 0-.5.2-.5.5s.2.5.5.5H63.2zM51.7 73c0-.3-.2-.5-.5-.5h-25c-.3 0-.5.2-.5.5s.2.5.5.5h25C51.5 73.5 51.7 73.3 51.7 73zM81.2 72.5H66.2c-.3 0-.5.2-.5.5s.2.5.5.5h14.9c.3 0 .5-.2.5-.5S81.5 72.5 81.2 72.5zM18.2 76.5h17c.3 0 .5-.2.5-.5s-.2-.5-.5-.5h-17c-.3 0-.5.2-.5.5S18 76.5 18.2 76.5zM53.2 81.5h-23c-.3 0-.5.2-.5.5s.2.5.5.5h23c.3 0 .5-.2.5-.5S53.5 81.5 53.2 81.5zM27.2 81.5h-7c-.3 0-.5.2-.5.5s.2.5.5.5h7c.3 0 .5-.2.5-.5S27.5 81.5 27.2 81.5zM61.2 81.5h-5c-.3 0-.5.2-.5.5s.2.5.5.5h5c.3 0 .5-.2.5-.5S61.5 81.5 61.2 81.5zM81.2 81.5h-17c-.3 0-.5.2-.5.5s.2.5.5.5h17c.3 0 .5-.2.5-.5S81.5 81.5 81.2 81.5z"/></svg>