<svg xmlns="http://www.w3.org/2000/svg" xmlns:xlink="http://www.w3.org/1999/xlink" id="Layer_1" enable-background="new 0 0 100 100" viewBox="0 0 100 100"><symbol id="navbar_x5F_icon_x5F_back_1_" viewBox="-1 -24 25 24"><path fill="none" stroke="#fff" stroke-miterlimit="10" stroke-width="2" d="M18-19c0-0.4,0-0.5-0.3-0.3l-12,7c-0.3,0.2-0.2,0.5,0.1,0.6l11.9,7C18-4.5,18-4.7,18-5V-19z" opacity=".9"/><rect width="24" height="24" y="-24" fill="none"/><rect width="25" height="24" x="-1" y="-24" fill="none" display="none"/></symbol><symbol id="navbar_x5F_icon_x5F_home_1_" viewBox="0 -24 24 24"><g opacity=".9"><g id="XMLID_809_"><circle id="XMLID_814_" cx="12" cy="-12" r="6.9" fill="none" stroke="#fff" stroke-miterlimit="10" stroke-width="1.803"/></g></g><rect width="24" height="24" y="-24" fill="none"/><rect width="24" height="23" y="-24" fill="none" display="none"/></symbol><symbol id="navbar_x5F_icon_x5F_recents_1_" viewBox="0 -24 24 24"><path fill="none" stroke="#fff" stroke-miterlimit="10" stroke-width="2" d="M19-5.7C19-5.4,18.6-5,18.2-5H5.8C5.4-5,5-5.4,5-5.7v-12.6C5-18.6,5.4-19,5.8-19h12.4      c0.4,0,0.8,0.4,0.8,0.7V-5.7z" opacity=".9"/><rect width="24" height="24" y="-24" fill="none"/><rect width="24" height="23" y="-24" fill="none" display="none"/></symbol><symbol id="sysbar_x5F_status_2" viewBox="0 -24 360 24"><use id="XMLID_495_" width="360" height="24" y="-24" overflow="visible" xlink:href="#sysbar_x5F_status_x5F_used_x5F_light"/></symbol><symbol id="sysbar_x5F_status_x5F_used_x5F_light" viewBox="0 -24 360 24"><rect width="360" height="24" y="-24" fill="#010101" fill-opacity="0"/><rect width="40" height="16" x="312" y="-21" fill="none" opacity=".9"/><path fill="#fff" d="M266-19l8.8,10.9C274.5-7.8,271.1-5,266-5s-8.5-2.8-8.8-3.1L266-19L266-19L266-19L266-19L266-19z" opacity=".9"/><rect width="16" height="16" x="258" y="-20" fill="none"/><polygon fill="#fff" points="277 -19 291 -19 291 -5" opacity=".9"/><rect width="16" height="16" x="276" y="-20" fill="none"/><g><rect width="16" height="16" x="296" y="-20" fill="none"/><path fill="#fff" d="M306-6v1h-3v-1h-3v-13h9v13H306z" opacity=".9"/></g></symbol><path fill="#594454" d="M36 66.5c-.8 0-1.5.7-1.5 1.5v2c0 .3.2.5.5.5h2c.3 0 .5-.2.5-.5v-2C37.5 67.2 36.8 66.5 36 66.5zM36.5 69.5h-1V68c0-.3.2-.5.5-.5s.5.2.5.5V69.5zM36 61.5c-.8 0-1.5.7-1.5 1.5v2c0 .3.2.5.5.5h2c.3 0 .5-.2.5-.5v-2C37.5 62.2 36.8 61.5 36 61.5zM36.5 64.5h-1V63c0-.3.2-.5.5-.5s.5.2.5.5V64.5zM29 57.5c.3 0 .5-.2.5-.5v-2c0-.8-.7-1.5-1.5-1.5s-1.5.7-1.5 1.5v2c0 .3.2.5.5.5H29zM27.5 55c0-.3.2-.5.5-.5s.5.2.5.5v1.5h-1V55zM27 52.5h2c.3 0 .5-.2.5-.5v-2c0-.8-.7-1.5-1.5-1.5s-1.5.7-1.5 1.5v2C26.5 52.3 26.7 52.5 27 52.5zM27.5 50c0-.3.2-.5.5-.5s.5.2.5.5v1.5h-1V50zM31 57.5h2c.3 0 .5-.2.5-.5v-2c0-.8-.7-1.5-1.5-1.5-.8 0-1.5.7-1.5 1.5v2C30.5 57.3 30.7 57.5 31 57.5zM31.5 55c0-.3.2-.5.5-.5.3 0 .5.2.5.5v1.5h-1V55zM31 52.5h2c.3 0 .5-.2.5-.5v-2c0-.8-.7-1.5-1.5-1.5-.8 0-1.5.7-1.5 1.5v2C30.5 52.3 30.7 52.5 31 52.5zM31.5 50c0-.3.2-.5.5-.5.3 0 .5.2.5.5v1.5h-1V50zM68 53.5c-.8 0-1.5.7-1.5 1.5v2c0 .3.2.5.5.5h2c.3 0 .5-.2.5-.5v-2C69.5 54.2 68.8 53.5 68 53.5zM68.5 56.5h-1V55c0-.3.2-.5.5-.5s.5.2.5.5V56.5zM68 48.5c-.8 0-1.5.7-1.5 1.5v2c0 .3.2.5.5.5h2c.3 0 .5-.2.5-.5v-2C69.5 49.2 68.8 48.5 68 48.5zM68.5 51.5h-1V50c0-.3.2-.5.5-.5s.5.2.5.5V51.5zM72 53.5c-.8 0-1.5.7-1.5 1.5v2c0 .3.2.5.5.5h2c.3 0 .5-.2.5-.5v-2C73.5 54.2 72.8 53.5 72 53.5zM72.5 56.5h-1V55c0-.3.2-.5.5-.5s.5.2.5.5V56.5zM70.5 50v2c0 .3.2.5.5.5h2c.3 0 .5-.2.5-.5v-2c0-.8-.7-1.5-1.5-1.5S70.5 49.2 70.5 50zM72.5 50v1.5h-1V50c0-.3.2-.5.5-.5S72.5 49.7 72.5 50z"/><path fill="#594454" d="M75,59.5c0.3,0,0.5-0.2,0.5-0.5V47c0-0.3-0.2-0.5-0.5-0.5h-2.5v-7H74c0.3,0,0.5-0.2,0.5-0.5v-4   c0-0.3-0.2-0.5-0.5-0.5h-1.5V31H73c0.3,0,0.5-0.2,0.5-0.5v-3c0-0.3-0.2-0.5-0.5-0.5h-0.5v-3.3c0-1.1-0.5-2.1-1.5-2.7l-0.5-0.3V19   c0-0.3-0.2-0.5-0.5-0.5s-0.5,0.2-0.5,0.5v1.7L69,21c-0.9,0.6-1.5,1.6-1.5,2.7V27H67c-0.3,0-0.5,0.2-0.5,0.5v3   c0,0.3,0.2,0.5,0.5,0.5h0.5v3.5H66c-0.3,0-0.5,0.2-0.5,0.5v4c0,0.3,0.2,0.5,0.5,0.5h1.5v1h-35v-1H34c0.3,0,0.5-0.2,0.5-0.5v-4   c0-0.3-0.2-0.5-0.5-0.5h-1.5V31H33c0.3,0,0.5-0.2,0.5-0.5v-3c0-0.3-0.2-0.5-0.5-0.5h-0.5v-3.3c0-1.1-0.5-2.1-1.5-2.7l-0.5-0.3V19   c0-0.3-0.2-0.5-0.5-0.5s-0.5,0.2-0.5,0.5v1.7L29,21c-0.9,0.6-1.5,1.6-1.5,2.7V27H27c-0.3,0-0.5,0.2-0.5,0.5v3   c0,0.3,0.2,0.5,0.5,0.5h0.5v3.5H26c-0.3,0-0.5,0.2-0.5,0.5v4c0,0.3,0.2,0.5,0.5,0.5h1.5v7H25c-0.3,0-0.5,0.2-0.5,0.5v12   c0,0.3,0.2,0.5,0.5,0.5h1.5v22H25c-0.3,0-0.5,0.2-0.5,0.5s0.2,0.5,0.5,0.5h2h6h6h22h6h6h2c0.3,0,0.5-0.2,0.5-0.5s-0.2-0.5-0.5-0.5   h-1.5v-22H75z M74.5,58.5H73h-6h-1.5v-11H68h0h4h2.5V58.5z M61,58.5h-1.5V54c0-1.5,1.1-2.2,1.5-2.5c0.4,0.2,1.5,0.9,1.5,2.5v4.5H61   z M61.2,50.5c-0.1,0-0.2,0-0.3,0c-0.1,0-2.4,0.9-2.4,3.5v4.5h-1V54c0-2.6-2.2-3.4-2.3-3.5c-0.1,0-0.2,0-0.3,0   c-0.1,0-2.4,0.9-2.4,3.5v4.5h-5V54c0-2.6-2.2-3.4-2.3-3.5c-0.1,0-0.2,0-0.3,0c-0.1,0-2.4,0.9-2.4,3.5v4.5h-1V54   c0-2.6-2.2-3.4-2.3-3.5c-0.1,0-0.2,0-0.3,0c-0.1,0-2.4,0.9-2.4,3.5v4.5h-1v-11h1V48c0,0.3,0.2,0.5,0.5,0.5s0.5-0.2,0.5-0.5v-0.5h1   V48c0,0.3,0.2,0.5,0.5,0.5s0.5-0.2,0.5-0.5v-0.5h1V48c0,0.3,0.2,0.5,0.5,0.5s0.5-0.2,0.5-0.5v-0.5h1V48c0,0.3,0.2,0.5,0.5,0.5   s0.5-0.2,0.5-0.5v-0.5h1V48c0,0.3,0.2,0.5,0.5,0.5s0.5-0.2,0.5-0.5v-0.5h1V48c0,0.3,0.2,0.5,0.5,0.5s0.5-0.2,0.5-0.5v-0.5h1V48   c0,0.3,0.2,0.5,0.5,0.5s0.5-0.2,0.5-0.5v-0.5h1V48c0,0.3,0.2,0.5,0.5,0.5s0.5-0.2,0.5-0.5v-0.5h1V48c0,0.3,0.2,0.5,0.5,0.5   s0.5-0.2,0.5-0.5v-0.5h1V48c0,0.3,0.2,0.5,0.5,0.5s0.5-0.2,0.5-0.5v-0.5h1V48c0,0.3,0.2,0.5,0.5,0.5s0.5-0.2,0.5-0.5v-0.5h1V48   c0,0.3,0.2,0.5,0.5,0.5s0.5-0.2,0.5-0.5v-0.5h1V48c0,0.3,0.2,0.5,0.5,0.5s0.5-0.2,0.5-0.5v-0.5h1V48c0,0.3,0.2,0.5,0.5,0.5   s0.5-0.2,0.5-0.5v-0.5h1v11h-1V54C63.5,51.4,61.3,50.6,61.2,50.5z M53.5,58.5V54c0-1.5,1.1-2.2,1.5-2.5c0.4,0.2,1.5,0.9,1.5,2.5   v4.5H53.5z M43.5,58.5V54c0-1.5,1.1-2.2,1.5-2.5c0.4,0.2,1.5,0.9,1.5,2.5v4.5H43.5z M39,58.5h-1.5V54c0-1.5,1.1-2.2,1.5-2.5   c0.4,0.2,1.5,0.9,1.5,2.5v4.5H39z M32.5,43.5h35v3h-2V46c0-0.8-0.7-1.5-1.5-1.5c-0.8,0-1.5,0.7-1.5,1.5v0.5h-1V46   c0-0.8-0.7-1.5-1.5-1.5s-1.5,0.7-1.5,1.5v0.5h-1V46c0-0.8-0.7-1.5-1.5-1.5s-1.5,0.7-1.5,1.5v0.5h-1V46c0-0.8-0.7-1.5-1.5-1.5   s-1.5,0.7-1.5,1.5v0.5h-1V46c0-0.8-0.7-1.5-1.5-1.5s-1.5,0.7-1.5,1.5v0.5h-1V46c0-0.8-0.7-1.5-1.5-1.5s-1.5,0.7-1.5,1.5v0.5h-1V46   c0-0.8-0.7-1.5-1.5-1.5s-1.5,0.7-1.5,1.5v0.5h-1V46c0-0.8-0.7-1.5-1.5-1.5s-1.5,0.7-1.5,1.5v0.5h-2V43.5z M64.5,46.5h-1V46   c0-0.3,0.2-0.5,0.5-0.5c0.3,0,0.5,0.2,0.5,0.5V46.5z M60.5,46.5h-1V46c0-0.3,0.2-0.5,0.5-0.5s0.5,0.2,0.5,0.5V46.5z M56.5,46.5h-1   V46c0-0.3,0.2-0.5,0.5-0.5s0.5,0.2,0.5,0.5V46.5z M52.5,46.5h-1V46c0-0.3,0.2-0.5,0.5-0.5s0.5,0.2,0.5,0.5V46.5z M48.5,46.5h-1V46   c0-0.3,0.2-0.5,0.5-0.5s0.5,0.2,0.5,0.5V46.5z M44.5,46.5h-1V46c0-0.3,0.2-0.5,0.5-0.5s0.5,0.2,0.5,0.5V46.5z M40.5,46.5h-1V46   c0-0.3,0.2-0.5,0.5-0.5s0.5,0.2,0.5,0.5V46.5z M36.5,46.5h-1V46c0-0.3,0.2-0.5,0.5-0.5s0.5,0.2,0.5,0.5V46.5z M72.5,30H72h-0.5   v-0.5c0-0.3-0.2-0.5-0.5-0.5s-0.5,0.2-0.5,0.5V30h-1v-0.5c0-0.3-0.2-0.5-0.5-0.5s-0.5,0.2-0.5,0.5V30H68h-0.5v-2h5V30z M69.5,21.9   l0.5-0.3l0.5,0.3c0.6,0.4,0.9,1,1,1.6h-3C68.6,22.8,68.9,22.2,69.5,21.9z M68.5,24.5C68.5,24.5,68.5,24.5,68.5,24.5l3,0V27h-1v-1   c0-0.3-0.2-0.5-0.5-0.5s-0.5,0.2-0.5,0.5v1h-1V24.5z M68.5,31h3v3.5h-3V31z M66.5,38.5v-3H68h4h1.5v3h-1V37c0-0.3-0.2-0.5-0.5-0.5   s-0.5,0.2-0.5,0.5v1.5h-1V37c0-0.3-0.2-0.5-0.5-0.5s-0.5,0.2-0.5,0.5v1.5h-1V37c0-0.3-0.2-0.5-0.5-0.5s-0.5,0.2-0.5,0.5v1.5H66.5z    M71.5,39.5v7h-3v-7H71.5z M67.5,41.5v1h-35v-1H67.5z M32.5,30H32h-0.5v-0.5c0-0.3-0.2-0.5-0.5-0.5s-0.5,0.2-0.5,0.5V30h-1v-0.5   c0-0.3-0.2-0.5-0.5-0.5s-0.5,0.2-0.5,0.5V30H28h-0.5v-2h5V30z M29.5,21.9l0.5-0.3l0.5,0.3c0.6,0.4,0.9,1,1,1.6h-3   C28.6,22.8,28.9,22.2,29.5,21.9z M28.5,24.5C28.5,24.5,28.5,24.5,28.5,24.5l3,0V27h-1v-1c0-0.3-0.2-0.5-0.5-0.5s-0.5,0.2-0.5,0.5v1   h-1V24.5z M28.5,31h3v3.5h-3V31z M26.5,38.5v-3H28h4h1.5v3h-1V37c0-0.3-0.2-0.5-0.5-0.5c-0.3,0-0.5,0.2-0.5,0.5v1.5h-1V38v-1   c0-0.3-0.2-0.5-0.5-0.5s-0.5,0.2-0.5,0.5v1v0.5h-1V37c0-0.3-0.2-0.5-0.5-0.5s-0.5,0.2-0.5,0.5v1.5H26.5z M28.5,39.5h3V41v2v3.5h-3   V39.5z M25.5,47.5H28h4h2.5v11H33h-6h-1.5V47.5z M27.5,59.5h5v22h-5V59.5z M33.5,59.5h1V60c0,0.3,0.2,0.5,0.5,0.5s0.5-0.2,0.5-0.5   v-0.5h1V60c0,0.3,0.2,0.5,0.5,0.5s0.5-0.2,0.5-0.5v-0.5c0,0,0,0,0,0h1v22h-5V59.5z M39.5,59.5h1V60c0,0.3,0.2,0.5,0.5,0.5   s0.5-0.2,0.5-0.5v-0.5h1V60c0,0.3,0.2,0.5,0.5,0.5s0.5-0.2,0.5-0.5v-0.5h1V60c0,0.3,0.2,0.5,0.5,0.5s0.5-0.2,0.5-0.5v-0.5h1V60   c0,0.3,0.2,0.5,0.5,0.5s0.5-0.2,0.5-0.5v-0.5h1V60c0,0.3,0.2,0.5,0.5,0.5s0.5-0.2,0.5-0.5v-0.5h1V60c0,0.3,0.2,0.5,0.5,0.5   s0.5-0.2,0.5-0.5v-0.5h1V60c0,0.3,0.2,0.5,0.5,0.5s0.5-0.2,0.5-0.5v-0.5h1V60c0,0.3,0.2,0.5,0.5,0.5s0.5-0.2,0.5-0.5v-0.5h1V60   c0,0.3,0.2,0.5,0.5,0.5s0.5-0.2,0.5-0.5v-0.5h1V60c0,0.3,0.2,0.5,0.5,0.5s0.5-0.2,0.5-0.5v-0.5h1v22h-2v-9.9c0-3.4-1.9-6.5-5.2-8.3   l-3.1-1.7c-0.2-0.1-0.3-0.1-0.5,0l-3.1,1.7c-3.2,1.8-5.2,4.9-5.2,8.3v9.9h-2V59.5z M57.5,81.5h-15v-9.9c0-3,1.7-5.8,4.6-7.4   l2.9-1.6l2.8,1.6c2.9,1.6,4.7,4.4,4.7,7.4V81.5z M61.5,59.5h1V60c0,0.3,0.2,0.5,0.5,0.5s0.5-0.2,0.5-0.5v-0.5c0,0,0,0,0,0h1V60   c0,0.3,0.2,0.5,0.5,0.5s0.5-0.2,0.5-0.5v-0.5h1v22h-5V59.5z M72.5,81.5h-5v-22h5V81.5z"/><path fill="#594454" d="M42 64.5c.8 0 1.5-.7 1.5-1.5s-.7-1.5-1.5-1.5-1.5.7-1.5 1.5S41.2 64.5 42 64.5zM42 62.5c.3 0 .5.2.5.5s-.2.5-.5.5-.5-.2-.5-.5S41.7 62.5 42 62.5zM58 64.5c.8 0 1.5-.7 1.5-1.5s-.7-1.5-1.5-1.5-1.5.7-1.5 1.5S57.2 64.5 58 64.5zM58 62.5c.3 0 .5.2.5.5s-.2.5-.5.5-.5-.2-.5-.5S57.7 62.5 58 62.5zM50 51.5c-.8 0-1.5.7-1.5 1.5s.7 1.5 1.5 1.5 1.5-.7 1.5-1.5S50.8 51.5 50 51.5zM50 53.5c-.3 0-.5-.2-.5-.5s.2-.5.5-.5.5.2.5.5S50.3 53.5 50 53.5zM36 71.5c-.8 0-1.5.7-1.5 1.5v2c0 .3.2.5.5.5h2c.3 0 .5-.2.5-.5v-2C37.5 72.2 36.8 71.5 36 71.5zM36.5 74.5h-1V73c0-.3.2-.5.5-.5s.5.2.5.5V74.5zM36 76.5c-.8 0-1.5.7-1.5 1.5v2c0 .3.2.5.5.5h2c.3 0 .5-.2.5-.5v-2C37.5 77.2 36.8 76.5 36 76.5zM36.5 79.5h-1V78c0-.3.2-.5.5-.5s.5.2.5.5V79.5zM64 61.5c-.8 0-1.5.7-1.5 1.5v2c0 .3.2.5.5.5h2c.3 0 .5-.2.5-.5v-2C65.5 62.2 64.8 61.5 64 61.5zM64.5 64.5h-1V63c0-.3.2-.5.5-.5.3 0 .5.2.5.5V64.5zM64 66.5c-.8 0-1.5.7-1.5 1.5v2c0 .3.2.5.5.5h2c.3 0 .5-.2.5-.5v-2C65.5 67.2 64.8 66.5 64 66.5zM64.5 69.5h-1V68c0-.3.2-.5.5-.5.3 0 .5.2.5.5V69.5zM64 76.5c-.8 0-1.5.7-1.5 1.5v2c0 .3.2.5.5.5h2c.3 0 .5-.2.5-.5v-2C65.5 77.2 64.8 76.5 64 76.5zM64.5 79.5h-1V78c0-.3.2-.5.5-.5.3 0 .5.2.5.5V79.5zM64 71.5c-.8 0-1.5.7-1.5 1.5v2c0 .3.2.5.5.5h2c.3 0 .5-.2.5-.5v-2C65.5 72.2 64.8 71.5 64 71.5zM64.5 74.5h-1V73c0-.3.2-.5.5-.5.3 0 .5.2.5.5V74.5z"/></svg>