<svg xmlns="http://www.w3.org/2000/svg" xmlns:xlink="http://www.w3.org/1999/xlink" id="Layer_1" enable-background="new 0 0 100 100" viewBox="0 0 100 100">
    <symbol id="navbar_x5F_icon_x5F_back_1_" viewBox="-1 -24 25 24">
        <path fill="none" stroke="#fff" stroke-miterlimit="10" stroke-width="2" d="M18-19c0-0.4,0-0.5-0.3-0.3l-12,7c-0.3,0.2-0.2,0.5,0.1,0.6l11.9,7C18-4.5,18-4.7,18-5V-19z" opacity=".9" />
        <rect width="29" height="29" y="-24" fill="none" />
        <rect width="55" height="54" x="-1" y="-24" fill="none" display="none" />
    </symbol>
    <symbol id="navbar_x5F_icon_x5F_home_1_" viewBox="0 -24 24 24">
        <g opacity=".9">
            <g id="XMLID_809_">
                <circle id="XMLID_814_" cx="12" cy="-12" r="6.9" fill="none" stroke="#fff" stroke-miterlimit="10" stroke-width="1.803" />
            </g>
        </g>
        <rect width="24" height="24" y="-24" fill="none" />
        <rect width="24" height="23" y="-24" fill="none" display="none" />
    </symbol>
    <symbol id="navbar_x5F_icon_x5F_recents_1_" viewBox="0 -24 24 24">
        <path fill="none" stroke="#fff" stroke-miterlimit="10" stroke-width="2" d="M19-5.7C19-5.4,18.6-5,18.2-5H5.8C5.4-5,5-5.4,5-5.7v-12.6C5-18.6,5.4-19,5.8-19h12.4      c0.4,0,0.8,0.4,0.8,0.7V-5.7z" opacity=".9" />
        <rect width="24" height="24" y="-24" fill="none" />
        <rect width="24" height="23" y="-24" fill="none" display="none" />
    </symbol>
    <symbol id="sysbar_x5F_status_2" viewBox="0 -24 360 24">
        <use id="XMLID_495_" width="360" height="24" y="-24" overflow="visible" xlink:href="#sysbar_x5F_status_x5F_used_x5F_light" />
    </symbol>
    <symbol id="sysbar_x5F_status_x5F_used_x5F_light" viewBox="0 -24 360 24">
        <rect width="360" height="24" y="-24" fill="#010101" fill-opacity="0" />
        <rect width="40" height="16" x="312" y="-21" fill="none" opacity=".9" />
        <path fill="#fff" d="M266-19l8.8,10.9C274.5-7.8,271.1-5,266-5s-8.5-2.8-8.8-3.1L266-19L266-19L266-19L266-19L266-19z" opacity=".9" />
        <rect width="16" height="16" x="258" y="-20" fill="none" />
        <polygon fill="#fff" points="277 -19 291 -19 291 -5" opacity=".9" />
        <rect width="16" height="16" x="276" y="-20" fill="none" />
        <g>
            <rect width="16" height="16" x="296" y="-20" fill="none" />
            <path fill="#fff" d="M306-6v1h-3v-1h-3v-13h9v13H306z" opacity=".9" />
        </g>
    </symbol>
    <path fill="#594454" d="M81,81.5h-2.5v-21H80c0.2,0,0.4-0.1,0.5-0.3l1-3c0.1-0.2,0-0.3-0.1-0.5c-0.1-0.1-0.2-0.2-0.4-0.2h-2.5v-4H79  c0.3,0,0.5-0.2,0.5-0.5v-3c0-0.3-0.2-0.5-0.5-0.5H64.5V45c0-0.3-0.2-0.5-0.5-0.5h-0.5v-5V39v-1.5c0-0.9-0.6-1.7-1.5-1.9V34  c0-0.3-0.2-0.5-0.5-0.5S61,33.7,61,34v1.6c-0.9,0.2-1.5,1-1.5,1.9V39v0.5v2h-19v-2V39v-1.5c0-0.9-0.6-1.7-1.5-1.9V34  c0-0.3-0.2-0.5-0.5-0.5S38,33.7,38,34v1.6c-0.9,0.2-1.5,1-1.5,1.9V39v0.5v5H36c-0.3,0-0.5,0.2-0.5,0.5v3.5H21  c-0.3,0-0.5,0.2-0.5,0.5v3c0,0.3,0.2,0.5,0.5,0.5h0.5v4H19c-0.2,0-0.3,0.1-0.4,0.2c-0.1,0.1-0.1,0.3-0.1,0.5l1,3  c0.1,0.2,0.3,0.3,0.5,0.3h1.5v21H19c-0.3,0-0.5,0.2-0.5,0.5s0.2,0.5,0.5,0.5h3h5.5h4H36h5h18h5h4.5h4H78h3c0.3,0,0.5-0.2,0.5-0.5  S81.3,81.5,81,81.5z M79.6,59.5H64.5v-2h15.8L79.6,59.5z M41.5,45.5h17v6h-17V45.5z M63.5,45.5v6h-4v-6H60h3H63.5z M46.5,52.5v4h-2  v-4H46.5z M47.5,52.5h2v4h-2V52.5z M50.5,52.5h2v4h-2V52.5z M53.5,52.5h2v4h-2V52.5z M56.5,52.5h2v4h-2V52.5z M59.5,56.5v-4h4v4  H59.5z M43.5,52.5v4h-2v-4H43.5z M40.5,56.5h-4v-4h4V56.5z M40.5,57.5v2h-4v-2H40.5z M59.5,57.5h4v2h-4V57.5z M77.5,56.5h-13v-4h13  V56.5z M78.5,49.5v2H78H64.5v-2H78.5z M60.5,44.5v-5h2v5H60.5z M61.5,36.5c0.6,0,1,0.4,1,1v1h-2v-1C60.5,36.9,60.9,36.5,61.5,36.5z   M59.5,42.5v2h-0.2H59H41h-0.5v-2H59.5z M38.5,36.5c0.6,0,1,0.4,1,1v1h-2v-1C37.5,36.9,37.9,36.5,38.5,36.5z M37.5,39.5h2v5h-2V39.5  z M37,45.5h3h0.5v6h-4V49c0,0,0,0,0,0s0,0,0,0v-3.5H37z M21.5,49.5h14v2H22h-0.5V49.5z M22.5,52.5h13v4h-13V52.5z M19.7,57.5h15.8v2  H20.4L19.7,57.5z M22.5,60.5h13v21H34V70.1c0,0,0,0,0,0c0,0,0,0,0,0c0,0,0,0,0,0c0-2.7-1.5-5.1-4-6.3c-0.3-0.2-0.7-0.2-1.1,0  c-2.4,1.2-3.9,3.6-4,6.3c0,0,0,0,0,0c0,0,0,0,0,0c0,0,0,0,0,0v11.4h-2.5V60.5z M27,81.5h-1v-11h7v11h-1V75c0-2.6-2.2-3.4-2.3-3.5  c-0.1,0-0.2,0-0.3,0c-0.1,0-2.4,0.9-2.4,3.5V81.5z M26,69.5c0.2-2.1,1.4-4,3.4-5c0.1,0,0.1,0,0.2,0c1.9,1,3.2,2.8,3.4,5H26z   M28,81.5V75c0-1.5,1.1-2.2,1.5-2.5C30,72.8,31,73.5,31,75v6.5H28z M36.5,81.5v-21h4v21H36.5z M43.5,81.5V70.6c0-3,1.5-5.8,4.1-7.4  l2.4-1.6l2.4,1.5c2.6,1.6,4.1,4.4,4.1,7.5v11H43.5z M52.9,62.3l-2.7-1.7c-0.2-0.1-0.4-0.1-0.5,0L47,62.3c-2.8,1.8-4.5,4.9-4.5,8.3  v10.9h-1v-24h17v24h-1v-11C57.5,67.2,55.8,64.1,52.9,62.3z M59.5,81.5v-21h4v21H59.5z M67,70.5h7v11H73V75c0-2.6-2.2-3.4-2.3-3.5  c-0.1,0-0.2,0-0.3,0c-0.1,0-2.4,0.9-2.4,3.5v6.5H67V70.5z M67,69.5c0.2-2.1,1.4-4,3.4-5c0.1,0,0.1,0,0.2,0c1.9,1,3.2,2.8,3.4,5H67z   M69,81.5V75c0-1.5,1.1-2.2,1.5-2.5C71,72.8,72,73.5,72,75v6.5H69z M75,81.5V70.1c0,0,0,0,0,0c0,0,0,0,0,0c0,0,0,0,0,0  c0-2.7-1.5-5.1-4-6.4c-0.3-0.2-0.7-0.2-1.1,0c-2.4,1.2-4,3.7-4,6.4v11.4h-1.5v-21h13v21H75z" />
</svg>