<svg xmlns="http://www.w3.org/2000/svg" id="Layer_1" enable-background="new 0 0 100 100" viewBox="0 0 100 100"><path id="circle325" fill="#594454" d="M 43.96875 14.947266 C 43.69275 14.947266 43.46875 15.171266 43.46875 15.447266 L 43.46875 17.947266 L 41.96875 17.947266 C 40.03875 17.947266 38.46875 19.517266 38.46875 21.447266 L 38.46875 21.478516 L 38.46875 22.447266 L 38.46875 26.962891 L 37.480469 26.962891 C 37.204469 26.962891 36.980469 27.186891 36.980469 27.462891 C 36.980469 27.738891 37.204469 27.962891 37.480469 27.962891 L 38.46875 27.962891 L 38.46875 29.976562 L 38.09375 29.976562 C 37.81775 29.976562 37.59375 30.200563 37.59375 30.476562 C 37.59375 30.752562 37.81775 30.976563 38.09375 30.976562 L 38.501953 30.976562 L 38.501953 52.447266 L 38.501953 52.970703 L 37.501953 52.970703 L 37.501953 52.447266 C 37.501953 51.619266 36.806953 50.944078 36.001953 50.955078 L 36.001953 49.6875 L 36.146484 49.541016 C 36.429484 49.258016 36.585937 48.879516 36.585938 48.478516 C 36.585938 48.077516 36.429484 47.702922 36.146484 47.419922 L 34.853516 46.126953 C 34.658516 45.931953 34.341484 45.931953 34.146484 46.126953 L 32.853516 47.419922 C 32.570516 47.701922 32.414063 48.076516 32.414062 48.478516 C 32.414062 48.878516 32.570516 49.257016 32.853516 49.541016 L 33 49.6875 L 33 50.947266 C 32.194 50.936266 31.5 51.611453 31.5 52.439453 L 31.5 52.970703 L 30.5 52.970703 L 30.5 52.439453 C 30.5 51.612453 29.827 50.939453 29 50.939453 C 28.173 50.939453 27.5 51.612453 27.5 52.439453 L 27.5 52.970703 L 26.5 52.970703 L 26.5 52.439453 C 26.5 51.612453 25.827 50.939453 25 50.939453 C 24.173 50.939453 23.5 51.612453 23.5 52.439453 L 23.5 52.970703 L 22.5 52.970703 L 22.5 52.439453 C 22.5 51.612453 21.827 50.939453 21 50.939453 C 20.173 50.939453 19.5 51.612453 19.5 52.439453 L 19.5 52.970703 L 18.5 52.970703 L 18.5 52.439453 C 18.5 51.611453 17.805 50.936266 17 50.947266 L 17 49.6875 L 17.146484 49.542969 C 17.429484 49.259969 17.585938 48.881469 17.585938 48.480469 C 17.585938 48.079469 17.429484 47.702922 17.146484 47.419922 L 15.853516 46.126953 C 15.658516 45.931953 15.341484 45.931953 15.146484 46.126953 L 13.853516 47.419922 C 13.570516 47.701922 13.414063 48.078469 13.414062 48.480469 C 13.414062 48.880469 13.570516 49.258969 13.853516 49.542969 L 13.998047 49.6875 L 13.998047 53.480469 L 13.998047 57.480469 L 13.998047 66.316406 L 14.001953 66.644531 L 14.001953 90 L 10.5 90 C 10.2 90 10 90.2 10 90.5 C 10 90.8 10.2 91 10.5 91 L 41.501953 91 L 58.501953 91 L 89.5 91 C 89.8 91 90 90.8 90 90.5 C 90 90.2 89.8 90 89.5 90 L 86.001953 90 L 86.001953 57.478516 L 86.001953 53.478516 L 86.001953 49.685547 L 86.146484 49.539062 C 86.429484 49.256062 86.585937 48.879516 86.585938 48.478516 C 86.586938 48.077516 86.431438 47.700969 86.148438 47.417969 L 84.855469 46.125 C 84.660469 45.93 84.343436 45.93 84.148438 46.125 L 82.855469 47.417969 C 82.572469 47.699969 82.416016 48.076516 82.416016 48.478516 C 82.416016 48.878516 82.572469 49.255063 82.855469 49.539062 L 83.001953 49.685547 L 83.001953 50.947266 C 82.195953 50.936266 81.501953 51.611453 81.501953 52.439453 L 81.501953 52.970703 L 80.501953 52.970703 L 80.501953 52.439453 C 80.501953 51.612453 79.828953 50.939453 79.001953 50.939453 C 78.174953 50.939453 77.501953 51.612453 77.501953 52.439453 L 77.501953 52.970703 L 76.501953 52.970703 L 76.501953 52.439453 C 76.501953 51.612453 75.828953 50.939453 75.001953 50.939453 C 74.174953 50.939453 73.501953 51.612453 73.501953 52.439453 L 73.501953 52.970703 L 72.501953 52.970703 L 72.501953 52.439453 C 72.501953 51.612453 71.828953 50.939453 71.001953 50.939453 C 70.174953 50.939453 69.501953 51.612453 69.501953 52.439453 L 69.501953 52.970703 L 68.501953 52.970703 L 68.501953 52.439453 C 68.501953 51.611453 67.806953 50.936266 67.001953 50.947266 L 67.001953 49.6875 L 67.146484 49.541016 C 67.429484 49.258016 67.585938 48.879516 67.585938 48.478516 C 67.585938 48.077516 67.429484 47.702922 67.146484 47.419922 L 65.853516 46.126953 C 65.658516 45.931953 65.341484 45.931953 65.146484 46.126953 L 63.853516 47.419922 C 63.570516 47.701922 63.414063 48.076516 63.414062 48.478516 C 63.414062 48.878516 63.570516 49.257016 63.853516 49.541016 L 64 49.6875 L 64 50.955078 C 63.194 50.944078 62.5 51.619266 62.5 52.447266 L 62.5 52.970703 L 61.5 52.970703 L 61.5 52.447266 L 61.5 30.75 C 61.553 30.671 61.591797 30.579562 61.591797 30.476562 C 61.591797 30.352563 61.541797 30.242297 61.466797 30.154297 L 61.466797 27.962891 L 62.4375 27.962891 C 62.7135 27.962891 62.9375 27.738891 62.9375 27.462891 C 62.9375 27.186891 62.7135 26.962891 62.4375 26.962891 L 61.46875 26.962891 L 61.46875 22.447266 L 61.46875 21.478516 L 61.46875 21.447266 C 61.46875 19.517266 59.89875 17.947266 57.96875 17.947266 L 57.46875 17.947266 L 57.46875 15.447266 C 57.46875 15.171266 57.24475 14.947266 56.96875 14.947266 C 56.69275 14.947266 56.46875 15.171266 56.46875 15.447266 L 56.46875 17.947266 L 44.46875 17.947266 L 44.46875 15.447266 C 44.46875 15.171266 44.24475 14.947266 43.96875 14.947266 z M 41.96875 18.947266 L 43.96875 18.947266 L 56.96875 18.947266 L 57.96875 18.947266 C 59.17675 18.947266 60.185969 19.807266 60.417969 20.947266 L 39.519531 20.947266 C 39.751531 19.807266 40.76075 18.947266 41.96875 18.947266 z M 39.46875 21.978516 L 60.46875 21.978516 L 60.46875 22.447266 L 60.46875 26.964844 L 39.46875 26.964844 L 39.46875 22.447266 L 39.46875 21.978516 z M 39.46875 27.962891 L 40.433594 27.962891 L 40.433594 29.957031 L 39.46875 29.957031 L 39.46875 27.962891 z M 41.433594 27.962891 L 43.429688 27.962891 L 43.429688 29.957031 L 41.433594 29.957031 L 41.433594 27.962891 z M 44.429688 27.962891 L 46.423828 27.962891 L 46.423828 29.957031 L 44.429688 29.957031 L 44.429688 27.962891 z M 47.423828 27.962891 L 49.419922 27.962891 L 49.419922 29.957031 L 47.423828 29.957031 L 47.423828 27.962891 z M 50.419922 27.962891 L 52.412109 27.962891 L 52.412109 29.957031 L 50.419922 29.957031 L 50.419922 27.962891 z M 53.412109 27.962891 L 55.408203 27.962891 L 55.408203 29.957031 L 53.412109 29.957031 L 53.412109 27.962891 z M 56.408203 27.962891 L 58.404297 27.962891 L 58.404297 29.957031 L 56.408203 29.957031 L 56.408203 27.962891 z M 59.404297 27.962891 L 60.46875 27.962891 L 60.46875 29.957031 L 59.404297 29.957031 L 59.404297 27.962891 z M 39.501953 30.978516 L 44.501953 30.978516 L 44.501953 47.478516 L 44.501953 51.039062 C 44.344953 50.983064 44.177953 50.947266 44.001953 50.947266 C 43.174953 50.947266 42.501953 51.620266 42.501953 52.447266 L 42.501953 52.970703 L 41.501953 52.970703 L 41.501953 52.447266 C 41.501953 51.620266 40.828953 50.947266 40.001953 50.947266 C 39.825953 50.947266 39.658953 50.983064 39.501953 51.039062 L 39.501953 30.978516 z M 45.501953 30.978516 L 54.501953 30.978516 L 54.501953 47.478516 L 54.501953 52.447266 L 54.501953 52.970703 L 53.501953 52.970703 L 53.501953 52.447266 C 53.501953 51.620266 52.828953 50.947266 52.001953 50.947266 C 51.174953 50.947266 50.501953 51.620266 50.501953 52.447266 L 50.501953 52.970703 L 49.501953 52.970703 L 49.501953 52.447266 C 49.501953 51.620266 48.828953 50.947266 48.001953 50.947266 C 47.174953 50.947266 46.501953 51.620266 46.501953 52.447266 L 46.501953 52.970703 L 45.501953 52.970703 L 45.501953 52.447266 L 45.501953 47.478516 L 45.501953 30.978516 z M 55.501953 30.978516 L 60.501953 30.978516 L 60.501953 51.039062 C 60.344953 50.983064 60.177953 50.947266 60.001953 50.947266 C 59.174953 50.947266 58.501953 51.620266 58.501953 52.447266 L 58.501953 52.970703 L 57.501953 52.970703 L 57.501953 52.447266 C 57.501953 51.620266 56.828953 50.947266 56.001953 50.947266 C 55.825953 50.947266 55.658953 50.983064 55.501953 51.039062 L 55.501953 47.478516 L 55.501953 30.978516 z M 15.501953 47.185547 L 16.439453 48.125 C 16.534453 48.22 16.585938 48.345516 16.585938 48.478516 C 16.586938 48.612516 16.535406 48.738031 16.441406 48.832031 L 16.294922 48.978516 L 14.707031 48.978516 L 14.5625 48.832031 C 14.4675 48.737031 14.416016 48.611516 14.416016 48.478516 C 14.416016 48.345516 14.4685 48.22 14.5625 48.125 L 15.501953 47.185547 z M 34.501953 47.185547 L 35.439453 48.125 C 35.534453 48.22 35.585937 48.345516 35.585938 48.478516 C 35.586937 48.612516 35.535406 48.738031 35.441406 48.832031 L 35.294922 48.978516 L 33.707031 48.978516 L 33.5625 48.832031 C 33.4675 48.737031 33.416016 48.611516 33.416016 48.478516 C 33.416016 48.345516 33.4685 48.22 33.5625 48.125 L 34.501953 47.185547 z M 65.501953 47.185547 L 66.439453 48.125 C 66.534453 48.22 66.585936 48.345516 66.585938 48.478516 C 66.586938 48.612516 66.535406 48.738031 66.441406 48.832031 L 66.294922 48.978516 L 64.707031 48.978516 L 64.5625 48.832031 C 64.4675 48.737031 64.416016 48.611516 64.416016 48.478516 C 64.416016 48.345516 64.4685 48.22 64.5625 48.125 L 65.501953 47.185547 z M 84.501953 47.185547 L 85.439453 48.125 C 85.534453 48.22 85.585937 48.345516 85.585938 48.478516 C 85.586938 48.612516 85.535406 48.738031 85.441406 48.832031 L 85.294922 48.978516 L 83.707031 48.978516 L 83.5625 48.832031 C 83.4675 48.737031 83.416016 48.611516 83.416016 48.478516 C 83.416016 48.345516 83.4685 48.22 83.5625 48.125 L 84.501953 47.185547 z M 15.001953 49.978516 L 16.001953 49.978516 L 16.001953 51.591797 L 16.001953 52.978516 L 15.001953 52.978516 L 15.001953 49.978516 z M 34.001953 49.978516 L 35.001953 49.978516 L 35.001953 51.601562 L 35.001953 52.978516 L 34.001953 52.978516 L 34.001953 51.591797 L 34.001953 49.978516 z M 65.001953 49.978516 L 66.001953 49.978516 L 66.001953 51.591797 L 66.001953 52.978516 L 65.001953 52.978516 L 65.001953 51.601562 L 65.001953 49.978516 z M 84.001953 49.978516 L 85.001953 49.978516 L 85.001953 52.978516 L 84.001953 52.978516 L 84.001953 51.591797 L 84.001953 49.978516 z M 17.001953 51.939453 C 17.276953 51.939453 17.501953 52.164453 17.501953 52.439453 L 17.501953 52.939453 L 17.001953 52.939453 L 17.001953 51.939453 z M 21.001953 51.939453 C 21.276953 51.939453 21.501953 52.164453 21.501953 52.439453 L 21.501953 52.939453 L 20.501953 52.939453 L 20.501953 52.439453 C 20.501953 52.164453 20.726953 51.939453 21.001953 51.939453 z M 25.001953 51.939453 C 25.276953 51.939453 25.501953 52.164453 25.501953 52.439453 L 25.501953 52.939453 L 24.501953 52.939453 L 24.501953 52.439453 C 24.501953 52.164453 24.726953 51.939453 25.001953 51.939453 z M 29.001953 51.939453 C 29.276953 51.939453 29.501953 52.164453 29.501953 52.439453 L 29.501953 52.939453 L 28.501953 52.939453 L 28.501953 52.439453 C 28.501953 52.164453 28.726953 51.939453 29.001953 51.939453 z M 33.001953 51.939453 L 33.001953 52.939453 L 32.501953 52.939453 L 32.501953 52.439453 C 32.501953 52.164453 32.726953 51.939453 33.001953 51.939453 z M 67.001953 51.939453 C 67.276953 51.939453 67.501953 52.164453 67.501953 52.439453 L 67.501953 52.939453 L 67.001953 52.939453 L 67.001953 51.939453 z M 71.001953 51.939453 C 71.276953 51.939453 71.501953 52.164453 71.501953 52.439453 L 71.501953 52.939453 L 70.501953 52.939453 L 70.501953 52.439453 C 70.501953 52.164453 70.726953 51.939453 71.001953 51.939453 z M 75.001953 51.939453 C 75.276953 51.939453 75.501953 52.164453 75.501953 52.439453 L 75.501953 52.939453 L 74.501953 52.939453 L 74.501953 52.439453 C 74.501953 52.164453 74.726953 51.939453 75.001953 51.939453 z M 79.001953 51.939453 C 79.276953 51.939453 79.501953 52.164453 79.501953 52.439453 L 79.501953 52.939453 L 78.501953 52.939453 L 78.501953 52.439453 C 78.501953 52.164453 78.726953 51.939453 79.001953 51.939453 z M 83.001953 51.939453 L 83.001953 52.939453 L 82.501953 52.939453 L 82.501953 52.439453 C 82.501953 52.164453 82.726953 51.939453 83.001953 51.939453 z M 36.001953 51.947266 C 36.276953 51.947266 36.501953 52.172266 36.501953 52.447266 L 36.501953 52.947266 L 36.001953 52.947266 L 36.001953 51.947266 z M 40.001953 51.947266 C 40.276953 51.947266 40.501953 52.171266 40.501953 52.447266 L 40.501953 52.947266 L 39.501953 52.947266 L 39.501953 52.447266 C 39.501953 52.172266 39.726953 51.947266 40.001953 51.947266 z M 44.001953 51.947266 C 44.276953 51.947266 44.501953 52.171266 44.501953 52.447266 L 44.501953 52.947266 L 43.501953 52.947266 L 43.501953 52.447266 C 43.501953 52.172266 43.726953 51.947266 44.001953 51.947266 z M 48.001953 51.947266 C 48.276953 51.947266 48.501953 52.171266 48.501953 52.447266 L 48.501953 52.947266 L 47.501953 52.947266 L 47.501953 52.447266 C 47.501953 52.172266 47.726953 51.947266 48.001953 51.947266 z M 52.001953 51.947266 C 52.276953 51.947266 52.501953 52.171266 52.501953 52.447266 L 52.501953 52.947266 L 51.501953 52.947266 L 51.501953 52.447266 C 51.501953 52.172266 51.726953 51.947266 52.001953 51.947266 z M 56.001953 51.947266 C 56.276953 51.947266 56.501953 52.171266 56.501953 52.447266 L 56.501953 52.947266 L 55.501953 52.947266 L 55.501953 52.447266 C 55.501953 52.172266 55.726953 51.947266 56.001953 51.947266 z M 60.001953 51.947266 C 60.276953 51.947266 60.501953 52.171266 60.501953 52.447266 L 60.501953 52.947266 L 59.501953 52.947266 L 59.501953 52.447266 C 59.501953 52.172266 59.726953 51.947266 60.001953 51.947266 z M 64.001953 51.947266 L 64.001953 52.947266 L 63.501953 52.947266 L 63.501953 52.447266 C 63.501953 52.172266 63.726953 51.947266 64.001953 51.947266 z M 15.001953 53.978516 L 16.001953 53.978516 L 16.001953 56.978516 L 15.001953 56.978516 L 15.001953 53.978516 z M 17.001953 53.978516 L 33.001953 53.978516 L 33.001953 56.978516 L 17.001953 56.978516 L 17.001953 53.978516 z M 34.001953 53.978516 L 35.001953 53.978516 L 35.001953 56.978516 L 34.001953 56.978516 L 34.001953 53.978516 z M 36.001953 53.978516 L 45.001953 53.978516 L 55.001953 53.978516 L 64.001953 53.978516 L 64.001953 56.978516 L 50.003906 56.978516 L 49.998047 56.978516 L 36.001953 56.978516 L 36.001953 53.978516 z M 65.001953 53.978516 L 66.001953 53.978516 L 66.001953 56.978516 L 65.001953 56.978516 L 65.001953 53.978516 z M 67.001953 53.978516 L 83.001953 53.978516 L 83.001953 56.978516 L 67.001953 56.978516 L 67.001953 53.978516 z M 84.001953 53.978516 L 85.001953 53.978516 L 85.001953 56.978516 L 84.001953 56.978516 L 84.001953 53.978516 z M 18.433594 54.970703 A 0.5 0.5 0 0 0 17.96875 55.470703 A 0.5 0.5 0 0 0 18.46875 55.970703 A 0.5 0.5 0 0 0 18.96875 55.470703 A 0.5 0.5 0 0 0 18.46875 54.970703 A 0.5 0.5 0 0 0 18.433594 54.970703 z M 24.933594 54.970703 A 0.5 0.5 0 0 0 24.46875 55.470703 A 0.5 0.5 0 0 0 24.96875 55.970703 A 0.5 0.5 0 0 0 25.46875 55.470703 A 0.5 0.5 0 0 0 24.96875 54.970703 A 0.5 0.5 0 0 0 24.933594 54.970703 z M 31.433594 54.970703 A 0.5 0.5 0 0 0 30.96875 55.470703 A 0.5 0.5 0 0 0 31.46875 55.970703 A 0.5 0.5 0 0 0 31.96875 55.470703 A 0.5 0.5 0 0 0 31.46875 54.970703 A 0.5 0.5 0 0 0 31.433594 54.970703 z M 37.464844 54.970703 A 0.5 0.5 0 0 0 37.001953 55.470703 A 0.5 0.5 0 0 0 37.501953 55.970703 A 0.5 0.5 0 0 0 38.001953 55.470703 A 0.5 0.5 0 0 0 37.501953 54.970703 A 0.5 0.5 0 0 0 37.464844 54.970703 z M 45.464844 54.970703 A 0.5 0.5 0 0 0 45.001953 55.470703 A 0.5 0.5 0 0 0 45.501953 55.970703 A 0.5 0.5 0 0 0 46.001953 55.470703 A 0.5 0.5 0 0 0 45.501953 54.970703 A 0.5 0.5 0 0 0 45.464844 54.970703 z M 54.464844 54.970703 A 0.5 0.5 0 0 0 54.001953 55.470703 A 0.5 0.5 0 0 0 54.501953 55.970703 A 0.5 0.5 0 0 0 55.001953 55.470703 A 0.5 0.5 0 0 0 54.501953 54.970703 A 0.5 0.5 0 0 0 54.464844 54.970703 z M 62.464844 54.970703 A 0.5 0.5 0 0 0 62.001953 55.470703 A 0.5 0.5 0 0 0 62.501953 55.970703 A 0.5 0.5 0 0 0 63.001953 55.470703 A 0.5 0.5 0 0 0 62.501953 54.970703 A 0.5 0.5 0 0 0 62.464844 54.970703 z M 68.464844 54.970703 A 0.5 0.5 0 0 0 68.001953 55.470703 A 0.5 0.5 0 0 0 68.501953 55.970703 A 0.5 0.5 0 0 0 69.001953 55.470703 A 0.5 0.5 0 0 0 68.501953 54.970703 A 0.5 0.5 0 0 0 68.464844 54.970703 z M 74.933594 54.970703 A 0.5 0.5 0 0 0 74.46875 55.470703 A 0.5 0.5 0 0 0 74.96875 55.970703 A 0.5 0.5 0 0 0 75.46875 55.470703 A 0.5 0.5 0 0 0 74.96875 54.970703 A 0.5 0.5 0 0 0 74.933594 54.970703 z M 81.464844 54.970703 A 0.5 0.5 0 0 0 81.001953 55.470703 A 0.5 0.5 0 0 0 81.501953 55.970703 A 0.5 0.5 0 0 0 82.001953 55.470703 A 0.5 0.5 0 0 0 81.501953 54.970703 A 0.5 0.5 0 0 0 81.464844 54.970703 z M 20.46875 54.978516 C 20.19275 54.978516 19.96875 55.202516 19.96875 55.478516 C 19.96875 55.754516 20.19275 55.978516 20.46875 55.978516 L 22.96875 55.978516 C 23.24475 55.978516 23.46875 55.754516 23.46875 55.478516 C 23.46875 55.202516 23.24475 54.978516 22.96875 54.978516 L 20.46875 54.978516 z M 26.96875 54.978516 C 26.69275 54.978516 26.46875 55.202516 26.46875 55.478516 C 26.46875 55.754516 26.69275 55.978516 26.96875 55.978516 L 29.46875 55.978516 C 29.74475 55.978516 29.96875 55.754516 29.96875 55.478516 C 29.96875 55.202516 29.74475 54.978516 29.46875 54.978516 L 26.96875 54.978516 z M 39.501953 54.978516 C 39.225953 54.978516 39.001953 55.202516 39.001953 55.478516 C 39.001953 55.754516 39.225953 55.978516 39.501953 55.978516 L 43.501953 55.978516 C 43.777953 55.978516 44.001953 55.754516 44.001953 55.478516 C 44.001953 55.202516 43.778953 54.978516 43.501953 54.978516 L 39.501953 54.978516 z M 47.501953 54.978516 C 47.225953 54.978516 47.001953 55.202516 47.001953 55.478516 C 47.001953 55.754516 47.225953 55.978516 47.501953 55.978516 L 52.501953 55.978516 C 52.777953 55.978516 53.001953 55.754516 53.001953 55.478516 C 53.001953 55.202516 52.778953 54.978516 52.501953 54.978516 L 47.501953 54.978516 z M 56.501953 54.978516 C 56.225953 54.978516 56.001953 55.202516 56.001953 55.478516 C 56.001953 55.754516 56.225953 55.978516 56.501953 55.978516 L 60.501953 55.978516 C 60.777953 55.978516 61.001953 55.754516 61.001953 55.478516 C 61.001953 55.202516 60.777953 54.978516 60.501953 54.978516 L 56.501953 54.978516 z M 70.501953 54.978516 C 70.225953 54.978516 70.001953 55.202516 70.001953 55.478516 C 70.001953 55.754516 70.225953 55.978516 70.501953 55.978516 L 73.001953 55.978516 C 73.277953 55.978516 73.501953 55.754516 73.501953 55.478516 C 73.501953 55.202516 73.277953 54.978516 73.001953 54.978516 L 70.501953 54.978516 z M 77.001953 54.978516 C 76.725953 54.978516 76.501953 55.202516 76.501953 55.478516 C 76.501953 55.754516 76.725953 55.978516 77.001953 55.978516 L 79.501953 55.978516 C 79.777953 55.978516 80.001953 55.754516 80.001953 55.478516 C 80.001953 55.202516 79.777953 54.978516 79.501953 54.978516 L 77.001953 54.978516 z M 15.001953 57.978516 L 16.001953 57.978516 L 16.001953 64.632812 L 16.001953 65.978516 L 15.001953 65.978516 L 15.001953 57.978516 z M 17.001953 57.978516 L 33.001953 57.978516 L 33.001953 63.986328 C 32.195953 63.975328 31.501953 64.649516 31.501953 65.478516 L 31.501953 65.970703 L 30.501953 65.970703 L 30.501953 65.478516 C 30.501953 64.651516 29.828953 63.978516 29.001953 63.978516 C 28.174953 63.978516 27.501953 64.651516 27.501953 65.478516 L 27.501953 65.970703 L 26.501953 65.970703 L 26.501953 65.478516 C 26.501953 64.651516 25.828953 63.978516 25.001953 63.978516 C 24.174953 63.978516 23.501953 64.651516 23.501953 65.478516 L 23.501953 65.970703 L 22.501953 65.970703 L 22.501953 65.478516 C 22.501953 64.651516 21.828953 63.978516 21.001953 63.978516 C 20.174953 63.978516 19.501953 64.651516 19.501953 65.478516 L 19.501953 65.970703 L 18.501953 65.970703 L 18.501953 65.478516 C 18.501953 64.650516 17.806953 63.975328 17.001953 63.986328 L 17.001953 57.978516 z M 34.001953 57.978516 L 35.001953 57.978516 L 35.001953 65.978516 L 34.001953 65.978516 L 34.001953 64.632812 L 34.001953 57.978516 z M 36.001953 57.978516 L 47.404297 57.978516 L 41.701172 60.259766 C 40.364172 60.794766 39.501953 62.070766 39.501953 63.509766 L 39.501953 64.070312 C 38.920953 64.277312 38.501953 64.827516 38.501953 65.478516 L 38.501953 65.978516 L 37.501953 65.978516 L 37.501953 65.478516 C 37.501953 64.650516 36.806953 63.975328 36.001953 63.986328 L 36.001953 57.978516 z M 52.597656 57.978516 L 64.001953 57.978516 L 64.001953 63.986328 C 63.195953 63.975328 62.501953 64.650516 62.501953 65.478516 L 62.501953 65.978516 L 61.501953 65.978516 L 61.501953 65.478516 C 61.501953 64.827516 61.082953 64.277312 60.501953 64.070312 L 60.501953 63.509766 C 60.501953 62.070766 59.637781 60.794766 58.300781 60.259766 L 52.597656 57.978516 z M 65.001953 57.978516 L 66.001953 57.978516 L 66.001953 65.978516 L 65.001953 65.978516 L 65.001953 64.632812 L 65.001953 57.978516 z M 67.001953 57.978516 L 73.357422 57.978516 L 71.552734 59.189453 C 70.581734 59.840453 70.001953 60.928656 70.001953 62.097656 L 70.001953 64.328125 C 69.696953 64.603125 69.501953 64.997453 69.501953 65.439453 L 69.501953 65.970703 L 68.501953 65.970703 L 68.501953 65.470703 C 68.501953 64.642703 67.806953 63.967516 67.001953 63.978516 L 67.001953 57.978516 z M 76.644531 57.978516 L 83.001953 57.978516 L 83.001953 63.947266 C 82.195953 63.936266 81.501953 64.610453 81.501953 65.439453 L 81.501953 65.970703 L 80.501953 65.970703 L 80.501953 65.439453 C 80.501953 64.997453 80.306953 64.603125 80.001953 64.328125 L 80.001953 62.097656 C 80.001953 60.928656 79.420219 59.840453 78.449219 59.189453 L 76.644531 57.978516 z M 84.001953 57.978516 L 85.001953 57.978516 L 85.001953 65.978516 L 84.001953 65.978516 L 84.001953 64.591797 L 84.001953 57.978516 z M 50.001953 58.017578 L 57.929688 61.1875 C 58.883688 61.5705 59.501953 62.481766 59.501953 63.509766 L 59.501953 64.070312 C 58.920953 64.277312 58.501953 64.827516 58.501953 65.478516 L 58.501953 65.978516 L 57.501953 65.978516 L 57.501953 65.478516 C 57.501953 64.651516 56.828953 63.978516 56.001953 63.978516 C 55.174953 63.978516 54.501953 64.651516 54.501953 65.478516 L 54.501953 65.978516 L 53.501953 65.978516 L 53.501953 65.478516 C 53.501953 64.651516 52.828953 63.978516 52.001953 63.978516 C 51.174953 63.978516 50.501953 64.651516 50.501953 65.478516 L 50.501953 65.978516 L 49.501953 65.978516 L 49.501953 65.478516 C 49.501953 64.651516 48.828953 63.978516 48.001953 63.978516 C 47.174953 63.978516 46.501953 64.651516 46.501953 65.478516 L 46.501953 65.978516 L 45.501953 65.978516 L 45.501953 65.478516 C 45.501953 64.651516 44.828953 63.978516 44.001953 63.978516 C 43.174953 63.978516 42.501953 64.651516 42.501953 65.478516 L 42.501953 65.978516 L 41.501953 65.978516 L 41.501953 65.478516 C 41.501953 64.827516 41.082953 64.277312 40.501953 64.070312 L 40.501953 63.509766 C 40.501953 62.481766 41.118266 61.5705 42.072266 61.1875 L 50.001953 58.017578 z M 75.001953 58.080078 L 77.894531 60.019531 C 78.587531 60.485531 79.001953 61.262656 79.001953 62.097656 L 79.001953 63.939453 C 78.174953 63.939453 77.501953 64.612453 77.501953 65.439453 L 77.501953 65.970703 L 76.501953 65.970703 L 76.501953 65.439453 C 76.501953 64.612453 75.828953 63.939453 75.001953 63.939453 C 74.174953 63.939453 73.501953 64.612453 73.501953 65.439453 L 73.501953 65.970703 L 72.501953 65.970703 L 72.501953 65.439453 C 72.501953 64.612453 71.828953 63.939453 71.001953 63.939453 L 71.001953 62.097656 C 71.001953 61.262656 71.414422 60.485531 72.107422 60.019531 L 75.001953 58.080078 z M 71.001953 64.939453 C 71.276953 64.939453 71.501953 65.164453 71.501953 65.439453 L 71.501953 65.939453 L 70.501953 65.939453 L 70.501953 65.439453 C 70.501953 65.164453 70.726953 64.939453 71.001953 64.939453 z M 75.001953 64.939453 C 75.276953 64.939453 75.501953 65.164453 75.501953 65.439453 L 75.501953 65.939453 L 74.501953 65.939453 L 74.501953 65.439453 C 74.501953 65.164453 74.726953 64.939453 75.001953 64.939453 z M 79.001953 64.939453 C 79.276953 64.939453 79.501953 65.164453 79.501953 65.439453 L 79.501953 65.939453 L 78.501953 65.939453 L 78.501953 65.439453 C 78.501953 65.164453 78.726953 64.939453 79.001953 64.939453 z M 83.001953 64.939453 L 83.001953 65.939453 L 82.501953 65.939453 L 82.501953 65.439453 C 82.501953 65.164453 82.726953 64.939453 83.001953 64.939453 z M 67.001953 64.970703 C 67.276953 64.970703 67.501953 65.195703 67.501953 65.470703 L 67.501953 65.970703 L 67.001953 65.970703 L 67.001953 64.970703 z M 17.001953 64.978516 C 17.276953 64.978516 17.501953 65.203516 17.501953 65.478516 L 17.501953 65.970703 L 17.001953 65.970703 L 17.001953 64.978516 z M 21.001953 64.978516 C 21.276953 64.978516 21.501953 65.203516 21.501953 65.478516 L 21.501953 65.970703 L 20.501953 65.970703 L 20.501953 65.478516 C 20.501953 65.203516 20.726953 64.978516 21.001953 64.978516 z M 25.001953 64.978516 C 25.276953 64.978516 25.501953 65.203516 25.501953 65.478516 L 25.501953 65.970703 L 24.501953 65.970703 L 24.501953 65.478516 C 24.501953 65.203516 24.726953 64.978516 25.001953 64.978516 z M 29.001953 64.978516 C 29.276953 64.978516 29.501953 65.203516 29.501953 65.478516 L 29.501953 65.970703 L 28.501953 65.970703 L 28.501953 65.478516 C 28.501953 65.203516 28.726953 64.978516 29.001953 64.978516 z M 33.001953 64.978516 L 33.001953 65.970703 L 32.501953 65.970703 L 32.501953 65.478516 C 32.501953 65.203516 32.726953 64.978516 33.001953 64.978516 z M 36.001953 64.978516 C 36.277953 64.978516 36.501953 65.203516 36.501953 65.478516 L 36.501953 65.978516 L 36.001953 65.978516 L 36.001953 64.978516 z M 40.001953 64.978516 C 40.276953 64.978516 40.501953 65.203516 40.501953 65.478516 L 40.501953 65.978516 L 39.501953 65.978516 L 39.501953 65.478516 C 39.501953 65.203516 39.726953 64.978516 40.001953 64.978516 z M 44.001953 64.978516 C 44.276953 64.978516 44.501953 65.203516 44.501953 65.478516 L 44.501953 65.978516 L 43.501953 65.978516 L 43.501953 65.478516 C 43.501953 65.203516 43.726953 64.978516 44.001953 64.978516 z M 48.001953 64.978516 C 48.276953 64.978516 48.501953 65.203516 48.501953 65.478516 L 48.501953 65.978516 L 47.501953 65.978516 L 47.501953 65.478516 C 47.501953 65.203516 47.726953 64.978516 48.001953 64.978516 z M 52.001953 64.978516 C 52.276953 64.978516 52.501953 65.203516 52.501953 65.478516 L 52.501953 65.978516 L 51.501953 65.978516 L 51.501953 65.478516 C 51.501953 65.203516 51.726953 64.978516 52.001953 64.978516 z M 56.001953 64.978516 C 56.276953 64.978516 56.501953 65.203516 56.501953 65.478516 L 56.501953 65.978516 L 55.501953 65.978516 L 55.501953 65.478516 C 55.501953 65.203516 55.726953 64.978516 56.001953 64.978516 z M 60.001953 64.978516 C 60.276953 64.978516 60.501953 65.203516 60.501953 65.478516 L 60.501953 65.978516 L 59.501953 65.978516 L 59.501953 65.478516 C 59.501953 65.203516 59.726953 64.978516 60.001953 64.978516 z M 64.001953 64.978516 L 64.001953 65.978516 L 63.501953 65.978516 L 63.501953 65.478516 C 63.501953 65.203516 63.726953 64.978516 64.001953 64.978516 z M 15.001953 66.978516 L 16.001953 66.978516 L 16.001953 89.978516 L 15.001953 89.978516 L 15.001953 66.978516 z M 17.001953 66.978516 L 18.001953 66.978516 L 20.001953 66.978516 L 20.001953 72.742188 L 20.001953 76.486328 L 20.001953 86.720703 L 20.001953 89.978516 L 17.001953 89.978516 L 17.001953 66.978516 z M 21.001953 66.978516 L 22.001953 66.978516 L 24.001953 66.978516 L 26.001953 66.978516 L 28.001953 66.978516 L 29.001953 66.978516 L 29.001953 70.298828 C 28.768953 70.060828 28.502125 69.849594 28.203125 69.683594 L 25.244141 68.035156 C 25.094141 67.951156 24.907813 67.951156 24.757812 68.035156 L 21.798828 69.683594 C 21.499828 69.850594 21.234953 70.060828 21.001953 70.298828 L 21.001953 66.978516 z M 30.001953 66.978516 L 32.001953 66.978516 L 33.001953 66.978516 L 33.001953 89.978516 L 30.001953 89.978516 L 30.001953 86.720703 L 30.001953 76.486328 L 30.001953 72.742188 L 30.001953 66.978516 z M 34.001953 66.978516 L 35.001953 66.978516 L 35.001953 89.957031 L 34.001953 89.957031 L 34.001953 66.978516 z M 36.001953 66.978516 L 37.001953 66.978516 L 39.001953 66.978516 L 41.001953 66.978516 L 43.001953 66.978516 L 45.001953 66.978516 L 47.001953 66.978516 L 49.001953 66.978516 L 51.001953 66.978516 L 53.001953 66.978516 L 55.001953 66.978516 L 57.001953 66.978516 L 59.001953 66.978516 L 61.001953 66.978516 L 63.001953 66.978516 L 64.001953 66.978516 L 64.001953 89.957031 L 61.001953 89.957031 L 61.001953 70.478516 C 61.001953 70.202516 60.777953 69.978516 60.501953 69.978516 L 39.501953 69.978516 C 39.225953 69.978516 39.001953 70.202516 39.001953 70.478516 L 39.001953 89.957031 L 36.001953 89.957031 L 36.001953 66.978516 z M 65.001953 66.978516 L 66.001953 66.978516 L 66.001953 89.957031 L 65.001953 89.957031 L 65.001953 66.978516 z M 67.001953 66.978516 L 70.001953 66.978516 L 70.001953 72.742188 L 70.001953 76.486328 L 70.001953 86.695312 L 70.001953 89.970703 L 67.179688 89.970703 C 67.157686 89.967703 67.137234 89.957031 67.115234 89.957031 L 67.001953 89.957031 L 67.001953 66.978516 z M 71.001953 66.978516 L 79.001953 66.978516 L 79.001953 70.298828 C 78.768953 70.060828 78.502125 69.849594 78.203125 69.683594 L 75.244141 68.035156 C 75.094141 67.951156 74.907813 67.951156 74.757812 68.035156 L 71.798828 69.683594 C 71.499828 69.850594 71.234953 70.060828 71.001953 70.298828 L 71.001953 66.978516 z M 80.001953 66.978516 L 83.001953 66.978516 L 83.001953 89.970703 L 80.001953 89.970703 L 80.001953 86.695312 L 80.001953 76.486328 L 80.001953 72.742188 L 80.001953 66.978516 z M 84.001953 66.978516 L 85.001953 66.978516 L 85.001953 89.960938 L 84.001953 89.960938 L 84.001953 66.978516 z M 72.464844 67.970703 A 0.5 0.5 0 0 0 72.001953 68.470703 A 0.5 0.5 0 0 0 72.501953 68.970703 A 0.5 0.5 0 0 0 73.001953 68.470703 A 0.5 0.5 0 0 0 72.501953 67.970703 A 0.5 0.5 0 0 0 72.464844 67.970703 z M 77.464844 67.970703 A 0.5 0.5 0 0 0 77.001953 68.470703 A 0.5 0.5 0 0 0 77.501953 68.970703 A 0.5 0.5 0 0 0 78.001953 68.470703 A 0.5 0.5 0 0 0 77.501953 67.970703 A 0.5 0.5 0 0 0 77.464844 67.970703 z M 18.501953 67.978516 A 0.5 0.5 0 0 0 18.001953 68.478516 A 0.5 0.5 0 0 0 18.501953 68.978516 A 0.5 0.5 0 0 0 19.001953 68.478516 A 0.5 0.5 0 0 0 18.501953 67.978516 z M 68.501953 67.978516 A 0.5 0.5 0 0 0 68.001953 68.478516 A 0.5 0.5 0 0 0 68.501953 68.978516 A 0.5 0.5 0 0 0 69.001953 68.478516 A 0.5 0.5 0 0 0 68.501953 67.978516 z M 81.501953 67.978516 A 0.5 0.5 0 0 0 81.001953 68.478516 A 0.5 0.5 0 0 0 81.501953 68.978516 A 0.5 0.5 0 0 0 82.001953 68.478516 A 0.5 0.5 0 0 0 81.501953 67.978516 z M 22.464844 68.003906 A 0.5 0.5 0 0 0 22.001953 68.503906 A 0.5 0.5 0 0 0 22.501953 69.003906 A 0.5 0.5 0 0 0 23.001953 68.503906 A 0.5 0.5 0 0 0 22.501953 68.003906 A 0.5 0.5 0 0 0 22.464844 68.003906 z M 27.464844 68.003906 A 0.5 0.5 0 0 0 27.001953 68.503906 A 0.5 0.5 0 0 0 27.501953 69.003906 A 0.5 0.5 0 0 0 28.001953 68.503906 A 0.5 0.5 0 0 0 27.501953 68.003906 A 0.5 0.5 0 0 0 27.464844 68.003906 z M 37.464844 68.003906 A 0.5 0.5 0 0 0 37.001953 68.503906 A 0.5 0.5 0 0 0 37.501953 69.003906 A 0.5 0.5 0 0 0 38.001953 68.503906 A 0.5 0.5 0 0 0 37.501953 68.003906 A 0.5 0.5 0 0 0 37.464844 68.003906 z M 45.464844 68.003906 A 0.5 0.5 0 0 0 45.001953 68.503906 A 0.5 0.5 0 0 0 45.501953 69.003906 A 0.5 0.5 0 0 0 46.001953 68.503906 A 0.5 0.5 0 0 0 45.501953 68.003906 A 0.5 0.5 0 0 0 45.464844 68.003906 z M 54.464844 68.003906 A 0.5 0.5 0 0 0 54.001953 68.503906 A 0.5 0.5 0 0 0 54.501953 69.003906 A 0.5 0.5 0 0 0 55.001953 68.503906 A 0.5 0.5 0 0 0 54.501953 68.003906 A 0.5 0.5 0 0 0 54.464844 68.003906 z M 62.464844 68.003906 A 0.5 0.5 0 0 0 62.001953 68.503906 A 0.5 0.5 0 0 0 62.501953 69.003906 A 0.5 0.5 0 0 0 63.001953 68.503906 A 0.5 0.5 0 0 0 62.501953 68.003906 A 0.5 0.5 0 0 0 62.464844 68.003906 z M 39.501953 68.011719 C 39.225953 68.011719 39.001953 68.235719 39.001953 68.511719 C 39.001953 68.787719 39.225953 69.011719 39.501953 69.011719 L 43.501953 69.011719 C 43.777953 69.011719 44.001953 68.787719 44.001953 68.511719 C 44.001953 68.235719 43.778953 68.011719 43.501953 68.011719 L 39.501953 68.011719 z M 47.501953 68.011719 C 47.225953 68.011719 47.001953 68.235719 47.001953 68.511719 C 47.001953 68.787719 47.225953 69.011719 47.501953 69.011719 L 52.501953 69.011719 C 52.777953 69.011719 53.001953 68.787719 53.001953 68.511719 C 53.001953 68.235719 52.778953 68.011719 52.501953 68.011719 L 47.501953 68.011719 z M 56.501953 68.011719 C 56.225953 68.011719 56.001953 68.235719 56.001953 68.511719 C 56.001953 68.787719 56.225953 69.011719 56.501953 69.011719 L 60.501953 69.011719 C 60.777953 69.011719 61.001953 68.787719 61.001953 68.511719 C 61.001953 68.235719 60.778953 68.011719 60.501953 68.011719 L 56.501953 68.011719 z M 31.492188 68.025391 A 0.5 0.5 0 0 0 30.992188 68.525391 A 0.5 0.5 0 0 0 31.492188 69.025391 A 0.5 0.5 0 0 0 31.992188 68.525391 A 0.5 0.5 0 0 0 31.492188 68.025391 z M 25.001953 69.042969 L 27.71875 70.556641 C 28.50975 70.997641 29.001953 71.835187 29.001953 72.742188 L 29.001953 73.988281 L 21.001953 73.988281 L 21.001953 72.742188 C 21.001953 71.836186 21.492203 70.998641 22.283203 70.556641 L 25.001953 69.042969 z M 75.001953 69.042969 L 77.71875 70.556641 C 78.50975 70.997641 79.001953 71.835186 79.001953 72.742188 L 79.001953 73.988281 L 71.001953 73.988281 L 71.001953 72.742188 C 71.001953 71.836186 71.492203 70.998641 72.283203 70.556641 L 75.001953 69.042969 z M 18.492188 69.978516 C 18.216188 69.978516 17.992188 70.202516 17.992188 70.478516 L 17.992188 72.478516 C 17.992188 72.754516 18.216188 72.978516 18.492188 72.978516 C 18.768187 72.978516 18.992188 72.754516 18.992188 72.478516 L 18.992188 70.478516 C 18.992188 70.202516 18.768187 69.978516 18.492188 69.978516 z M 68.492188 69.978516 C 68.216188 69.978516 67.992188 70.202516 67.992188 70.478516 L 67.992188 72.478516 C 67.992188 72.754516 68.216188 72.978516 68.492188 72.978516 C 68.768186 72.978516 68.992188 72.754516 68.992188 72.478516 L 68.992188 70.478516 C 68.992188 70.202516 68.768186 69.978516 68.492188 69.978516 z M 37.492188 70.011719 C 37.216186 70.011719 36.992188 70.235719 36.992188 70.511719 L 36.992188 72.511719 C 36.992188 72.787719 37.216186 73.011719 37.492188 73.011719 C 37.768188 73.011719 37.992188 72.787719 37.992188 72.511719 L 37.992188 70.511719 C 37.992188 70.235719 37.768188 70.011719 37.492188 70.011719 z M 62.492188 70.011719 C 62.216186 70.011719 61.992188 70.235719 61.992188 70.511719 L 61.992188 72.511719 C 61.992188 72.787719 62.216186 73.011719 62.492188 73.011719 C 62.768188 73.011719 62.992186 72.787719 62.992188 72.511719 L 62.992188 70.511719 C 62.992188 70.235719 62.768188 70.011719 62.492188 70.011719 z M 81.501953 70.021484 C 81.225953 70.021484 81.001953 70.245484 81.001953 70.521484 L 81.001953 72.521484 C 81.001953 72.797484 81.225953 73.021484 81.501953 73.021484 C 81.777953 73.021484 82.001953 72.797484 82.001953 72.521484 L 82.001953 70.521484 C 82.001953 70.245484 81.777953 70.021484 81.501953 70.021484 z M 31.492188 70.025391 C 31.216188 70.025391 30.992186 70.249391 30.992188 70.525391 L 30.992188 72.525391 C 30.992188 72.801391 31.216188 73.025391 31.492188 73.025391 C 31.768187 73.025391 31.992187 72.801391 31.992188 72.525391 L 31.992188 70.525391 C 31.992188 70.249391 31.768187 70.025391 31.492188 70.025391 z M 40.001953 70.978516 L 60.001953 70.978516 L 60.001953 89.957031 L 59.001953 89.957031 L 59.001953 80.117188 C 59.001953 78.574186 58.224828 77.156219 56.923828 76.324219 L 50.271484 72.076172 C 50.107484 71.972172 49.896422 71.972172 49.732422 72.076172 L 43.078125 76.326172 C 41.777125 77.157172 41.001953 78.574187 41.001953 80.117188 L 41.001953 89.957031 L 40.001953 89.957031 L 40.001953 70.978516 z M 43.501953 71.978516 C 42.674953 71.978516 42.001953 72.651516 42.001953 73.478516 C 42.001953 74.305516 42.674953 74.978516 43.501953 74.978516 C 44.328953 74.978516 45.001953 74.305516 45.001953 73.478516 C 45.001953 72.651516 44.328953 71.978516 43.501953 71.978516 z M 56.501953 71.978516 C 55.674953 71.978516 55.001953 72.651516 55.001953 73.478516 C 55.001953 74.305516 55.674953 74.978516 56.501953 74.978516 C 57.328953 74.978516 58.001953 74.305516 58.001953 73.478516 C 58.001953 72.651516 57.328953 71.978516 56.501953 71.978516 z M 43.501953 72.978516 C 43.776953 72.978516 44.001953 73.203516 44.001953 73.478516 C 44.001953 73.753516 43.776953 73.978516 43.501953 73.978516 C 43.226953 73.978516 43.001953 73.753516 43.001953 73.478516 C 43.001953 73.203516 43.226953 72.978516 43.501953 72.978516 z M 56.501953 72.978516 C 56.776953 72.978516 57.001953 73.203516 57.001953 73.478516 C 57.001953 73.753516 56.776953 73.978516 56.501953 73.978516 C 56.226953 73.978516 56.001953 73.753516 56.001953 73.478516 C 56.001953 73.203516 56.226953 72.978516 56.501953 72.978516 z M 49.998047 73.091797 L 56.382812 77.167969 C 57.394813 77.814969 57.998047 78.917186 57.998047 80.117188 L 57.998047 89.957031 L 56.115234 89.957031 L 56.115234 83.697266 C 56.115234 83.693266 56.113281 83.689547 56.113281 83.685547 C 56.113281 83.681547 56.115234 83.677828 56.115234 83.673828 C 56.115234 83.212828 55.929516 82.7635 55.603516 82.4375 C 55.598516 82.4325 55.592891 82.428828 55.587891 82.423828 C 55.592891 82.418828 55.598516 82.415156 55.603516 82.410156 C 55.923516 82.091156 56.099328 81.670703 56.111328 81.220703 C 56.111328 81.212703 56.115234 81.205266 56.115234 81.197266 L 56.115234 80.673828 C 56.115234 79.645828 55.598422 78.700484 54.732422 78.146484 L 50.384766 75.367188 C 50.220766 75.262186 50.009703 75.262186 49.845703 75.367188 L 45.498047 78.146484 C 44.632047 78.701484 44.115234 79.645828 44.115234 80.673828 L 44.115234 81.197266 C 44.115234 81.218266 44.124953 81.237812 44.126953 81.257812 C 44.147953 81.692813 44.320859 82.101156 44.630859 82.410156 C 44.635859 82.415156 44.641484 82.418828 44.646484 82.423828 C 44.641484 82.428828 44.635859 82.430547 44.630859 82.435547 C 44.304859 82.761547 44.117188 83.212828 44.117188 83.673828 L 44.117188 83.675781 C 44.117188 83.683781 44.113281 83.689266 44.113281 83.697266 L 44.113281 89.955078 L 41.998047 89.955078 L 41.998047 80.117188 C 41.998047 78.917186 42.603234 77.813969 43.615234 77.167969 L 49.998047 73.091797 z M 68.464844 73.996094 A 0.5 0.5 0 0 0 68.001953 74.496094 A 0.5 0.5 0 0 0 68.501953 74.996094 A 0.5 0.5 0 0 0 69.001953 74.496094 A 0.5 0.5 0 0 0 68.501953 73.996094 A 0.5 0.5 0 0 0 68.464844 73.996094 z M 37.501953 74 A 0.5 0.5 0 0 0 37.001953 74.5 A 0.5 0.5 0 0 0 37.501953 75 A 0.5 0.5 0 0 0 38.001953 74.5 A 0.5 0.5 0 0 0 37.501953 74 z M 18.458984 74.007812 A 0.5 0.5 0 0 0 17.994141 74.507812 A 0.5 0.5 0 0 0 18.494141 75.007812 A 0.5 0.5 0 0 0 18.994141 74.507812 A 0.5 0.5 0 0 0 18.494141 74.007812 A 0.5 0.5 0 0 0 18.458984 74.007812 z M 62.501953 74.011719 A 0.5 0.5 0 0 0 62.001953 74.511719 A 0.5 0.5 0 0 0 62.501953 75.011719 A 0.5 0.5 0 0 0 63.001953 74.511719 A 0.5 0.5 0 0 0 62.501953 74.011719 z M 81.501953 74.021484 A 0.5 0.5 0 0 0 81.001953 74.521484 A 0.5 0.5 0 0 0 81.501953 75.021484 A 0.5 0.5 0 0 0 82.001953 74.521484 A 0.5 0.5 0 0 0 81.501953 74.021484 z M 31.492188 74.025391 A 0.5 0.5 0 0 0 30.992188 74.525391 A 0.5 0.5 0 0 0 31.492188 75.025391 A 0.5 0.5 0 0 0 31.992188 74.525391 A 0.5 0.5 0 0 0 31.492188 74.025391 z M 21.001953 74.988281 L 22.001953 74.988281 L 22.001953 75.982422 L 22.001953 75.986328 L 21.001953 75.986328 L 21.001953 74.988281 z M 23.001953 74.988281 L 24.501953 74.988281 L 24.501953 75.982422 C 24.500953 75.983422 24.501953 75.985328 24.501953 75.986328 L 23.001953 75.986328 L 23.001953 75.982422 L 23.001953 74.988281 z M 25.501953 74.988281 L 27.001953 74.988281 L 27.001953 75.982422 C 27.000953 75.983422 27.001953 75.985328 27.001953 75.986328 L 25.501953 75.986328 L 25.501953 75.982422 L 25.501953 74.988281 z M 28.001953 74.988281 L 29.001953 74.988281 L 29.001953 75.986328 L 28 75.986328 C 28 75.985328 28.001953 75.983422 28.001953 75.982422 L 28.001953 74.988281 z M 71.001953 74.988281 L 72.001953 74.988281 L 72.001953 75.982422 L 72.001953 75.986328 L 71.001953 75.986328 L 71.001953 74.988281 z M 73.001953 74.988281 L 74.501953 74.988281 L 74.501953 75.982422 C 74.500953 75.983422 74.501953 75.985328 74.501953 75.986328 L 73.001953 75.986328 L 73.001953 75.982422 L 73.001953 74.988281 z M 75.501953 74.988281 L 77.001953 74.988281 L 77.001953 75.982422 C 77.000953 75.983422 77.001953 75.985328 77.001953 75.986328 L 75.501953 75.986328 L 75.501953 75.982422 L 75.501953 74.988281 z M 78.001953 74.988281 L 79.001953 74.988281 L 79.001953 75.986328 L 78 75.986328 C 78 75.985328 78.001953 75.983422 78.001953 75.982422 L 78.001953 74.988281 z M 37.501953 75.978516 C 37.225953 75.978516 37.001953 76.202516 37.001953 76.478516 L 37.001953 80.478516 C 37.001953 80.754516 37.225953 80.978516 37.501953 80.978516 C 37.777953 80.978516 38.001953 80.754516 38.001953 80.478516 L 38.001953 76.478516 C 38.001953 76.202516 37.777953 75.978516 37.501953 75.978516 z M 18.494141 75.984375 C 18.218141 75.984375 17.994141 76.208375 17.994141 76.484375 L 17.994141 80.484375 C 17.994141 80.760375 18.218141 80.984375 18.494141 80.984375 C 18.770141 80.984375 18.994141 80.760375 18.994141 80.484375 L 18.994141 76.484375 C 18.994141 76.208375 18.770141 75.984375 18.494141 75.984375 z M 62.498047 75.990234 C 62.222047 75.990234 61.998047 76.214234 61.998047 76.490234 L 61.998047 80.490234 C 61.998047 80.766234 62.222047 80.990234 62.498047 80.990234 C 62.774047 80.990234 62.998047 80.766234 62.998047 80.490234 L 62.998047 76.490234 C 62.998047 76.214234 62.774047 75.990234 62.498047 75.990234 z M 68.501953 75.996094 C 68.225953 75.996094 68.001953 76.220094 68.001953 76.496094 L 68.001953 80.496094 C 68.001953 80.772094 68.225953 80.996094 68.501953 80.996094 C 68.777953 80.996094 69.001953 80.772094 69.001953 80.496094 L 69.001953 76.496094 C 69.001953 76.220094 68.777953 75.996094 68.501953 75.996094 z M 81.501953 76 C 81.225953 76 81.001953 76.224 81.001953 76.5 L 81.001953 80.5 C 81.001953 80.776 81.225953 81 81.501953 81 C 81.777953 81 82.001953 80.776 82.001953 80.5 L 82.001953 76.5 C 82.001953 76.224 81.777953 76 81.501953 76 z M 31.492188 76.003906 C 31.216188 76.003906 30.992186 76.227906 30.992188 76.503906 L 30.992188 80.503906 C 30.992188 80.779906 31.216188 81.003906 31.492188 81.003906 C 31.768187 81.003906 31.992187 80.779906 31.992188 80.503906 L 31.992188 76.503906 C 31.992188 76.227906 31.768187 76.003906 31.492188 76.003906 z M 50.115234 76.382812 L 54.193359 78.988281 C 54.771359 79.358281 55.115234 79.989781 55.115234 80.675781 L 55.115234 81.175781 C 55.115234 81.375781 55.038484 81.564078 54.896484 81.705078 C 54.756484 81.845078 54.562234 81.925781 54.365234 81.925781 C 54.089234 81.925781 53.865234 82.149781 53.865234 82.425781 C 53.865234 82.701781 54.089234 82.925781 54.365234 82.925781 C 54.562234 82.925781 54.757484 83.004531 54.896484 83.144531 C 55.035484 83.284531 55.115234 83.478781 55.115234 83.675781 C 55.115234 83.679781 55.117188 83.6835 55.117188 83.6875 C 55.118187 83.6915 55.115234 83.694219 55.115234 83.699219 L 55.115234 89.949219 L 45.115234 89.949219 L 45.115234 83.699219 L 45.115234 83.697266 C 45.115234 83.689266 45.119141 83.683781 45.119141 83.675781 C 45.119141 83.478781 45.199844 83.283531 45.339844 83.144531 C 45.479844 83.005531 45.672141 82.925781 45.869141 82.925781 C 46.145141 82.925781 46.369141 82.701781 46.369141 82.425781 C 46.369141 82.149781 46.145141 81.925781 45.869141 81.925781 C 45.672141 81.925781 45.478844 81.845078 45.339844 81.705078 C 45.197844 81.563078 45.119141 81.375781 45.119141 81.175781 C 45.119141 81.168781 45.115234 81.16225 45.115234 81.15625 L 45.115234 80.675781 C 45.115234 79.989781 45.461063 79.359281 46.039062 78.988281 L 50.115234 76.382812 z M 21.001953 76.984375 L 29.001953 76.984375 L 29.001953 77.957031 L 27.115234 77.957031 C 26.839234 77.957031 26.615234 78.181031 26.615234 78.457031 C 26.615234 78.733031 26.839234 78.957031 27.115234 78.957031 L 29.001953 78.957031 L 29.001953 79.966797 L 21.001953 79.966797 L 21.001953 78.957031 L 23.115234 78.957031 C 23.391234 78.957031 23.615234 78.733031 23.615234 78.457031 C 23.615234 78.181031 23.391234 77.957031 23.115234 77.957031 L 21.001953 77.957031 L 21.001953 76.984375 z M 71.001953 76.984375 L 79.001953 76.984375 L 79.001953 77.957031 L 77.115234 77.957031 C 76.839234 77.957031 76.615234 78.181031 76.615234 78.457031 C 76.615234 78.733031 76.839234 78.957031 77.115234 78.957031 L 79.001953 78.957031 L 79.001953 79.966797 L 71.001953 79.966797 L 71.001953 78.955078 L 73.115234 78.955078 C 73.391234 78.955078 73.615234 78.731078 73.615234 78.455078 C 73.615234 78.179078 73.391234 77.955078 73.115234 77.955078 L 71.001953 77.955078 L 71.001953 76.984375 z M 25.115234 77.949219 A 0.5 0.5 0 0 0 24.615234 78.449219 A 0.5 0.5 0 0 0 25.115234 78.949219 A 0.5 0.5 0 0 0 25.615234 78.449219 A 0.5 0.5 0 0 0 25.115234 77.949219 z M 75.115234 77.949219 A 0.5 0.5 0 0 0 74.615234 78.449219 A 0.5 0.5 0 0 0 75.115234 78.949219 A 0.5 0.5 0 0 0 75.615234 78.449219 A 0.5 0.5 0 0 0 75.115234 77.949219 z M 21.001953 80.966797 L 29.001953 80.966797 L 29.001953 84.277344 C 28.768953 84.039344 28.502125 83.829109 28.203125 83.662109 L 25.244141 82.013672 C 25.094141 81.929672 24.907813 81.929672 24.757812 82.013672 L 21.798828 83.662109 C 21.499828 83.828109 21.234953 84.038344 21.001953 84.277344 L 21.001953 80.966797 z M 71.001953 80.966797 L 79.001953 80.966797 L 79.001953 84.251953 C 78.768953 84.013953 78.502125 83.803719 78.203125 83.636719 L 75.244141 81.986328 C 75.094141 81.902328 74.907813 81.902328 74.757812 81.986328 L 71.798828 83.636719 C 71.499828 83.803719 71.234953 84.012 71.001953 84.25 L 71.001953 80.966797 z M 37.501953 81.978516 A 0.5 0.5 0 0 0 37.001953 82.478516 A 0.5 0.5 0 0 0 37.501953 82.978516 A 0.5 0.5 0 0 0 38.001953 82.478516 A 0.5 0.5 0 0 0 37.501953 81.978516 z M 18.494141 81.986328 A 0.5 0.5 0 0 0 17.994141 82.486328 A 0.5 0.5 0 0 0 18.494141 82.986328 A 0.5 0.5 0 0 0 18.994141 82.486328 A 0.5 0.5 0 0 0 18.494141 81.986328 z M 62.498047 81.990234 A 0.5 0.5 0 0 0 61.998047 82.490234 A 0.5 0.5 0 0 0 62.498047 82.990234 A 0.5 0.5 0 0 0 62.998047 82.490234 A 0.5 0.5 0 0 0 62.498047 81.990234 z M 68.501953 81.996094 A 0.5 0.5 0 0 0 68.001953 82.496094 A 0.5 0.5 0 0 0 68.501953 82.996094 A 0.5 0.5 0 0 0 69.001953 82.496094 A 0.5 0.5 0 0 0 68.501953 81.996094 z M 81.501953 82 A 0.5 0.5 0 0 0 81.001953 82.5 A 0.5 0.5 0 0 0 81.501953 83 A 0.5 0.5 0 0 0 82.001953 82.5 A 0.5 0.5 0 0 0 81.501953 82 z M 31.492188 82.003906 A 0.5 0.5 0 0 0 30.992188 82.503906 A 0.5 0.5 0 0 0 31.492188 83.003906 A 0.5 0.5 0 0 0 31.992188 82.503906 A 0.5 0.5 0 0 0 31.492188 82.003906 z M 75.001953 82.996094 L 77.716797 84.509766 C 78.508797 84.951766 79.001953 85.789312 79.001953 86.695312 L 79.001953 87.966797 L 71.001953 87.966797 L 71.001953 86.695312 C 71.001953 85.789312 71.492203 84.951766 72.283203 84.509766 L 75.001953 82.996094 z M 25.001953 83.021484 L 27.71875 84.535156 C 28.51075 84.975156 29.001953 85.813703 29.001953 86.720703 L 29.001953 87.966797 L 21.001953 87.966797 L 21.001953 86.720703 C 21.001953 85.814703 21.491203 84.976156 22.283203 84.535156 L 25.001953 83.021484 z M 37.501953 83.978516 C 37.225953 83.978516 37.001953 84.202516 37.001953 84.478516 L 37.001953 86.478516 C 37.001953 86.755516 37.224953 86.978516 37.501953 86.978516 C 37.777953 86.978516 38.001953 86.754516 38.001953 86.478516 L 38.001953 84.478516 C 38.001953 84.202516 37.777953 83.978516 37.501953 83.978516 z M 18.494141 83.984375 C 18.218141 83.984375 17.994141 84.208375 17.994141 84.484375 L 17.994141 86.484375 C 17.994141 86.761375 18.217141 86.984375 18.494141 86.984375 C 18.770141 86.984375 18.994141 86.760375 18.994141 86.484375 L 18.994141 84.484375 C 18.994141 84.208375 18.770141 83.984375 18.494141 83.984375 z M 62.498047 83.990234 C 62.222047 83.990234 61.998047 84.214234 61.998047 84.490234 L 61.998047 86.490234 C 61.998047 86.766234 62.222047 86.990234 62.498047 86.990234 C 62.775047 86.990234 62.998047 86.767234 62.998047 86.490234 L 62.998047 84.490234 C 62.998047 84.214234 62.774047 83.990234 62.498047 83.990234 z M 81.501953 84 C 81.225953 84 81.001953 84.224 81.001953 84.5 L 81.001953 86.5 C 81.001953 86.776 81.225953 87 81.501953 87 C 81.777953 87 82.001953 86.776 82.001953 86.5 L 82.001953 84.5 C 82.001953 84.224 81.777953 84 81.501953 84 z M 31.492188 84.003906 C 31.216188 84.003906 30.992186 84.227906 30.992188 84.503906 L 30.992188 86.503906 C 30.992188 86.780906 31.215187 87.003906 31.492188 87.003906 C 31.768187 87.003906 31.992187 86.779906 31.992188 86.503906 L 31.992188 84.503906 C 31.992188 84.227906 31.768187 84.003906 31.492188 84.003906 z M 68.501953 84.005859 C 68.225953 84.005859 68.001953 84.229859 68.001953 84.505859 L 68.001953 86.505859 C 68.001953 86.782859 68.224953 87.005859 68.501953 87.005859 C 68.777953 87.005859 69.001953 86.781859 69.001953 86.505859 L 69.001953 84.505859 C 69.001953 84.229859 68.777953 84.005859 68.501953 84.005859 z M 37.501953 87.978516 A 0.5 0.5 0 0 0 37.001953 88.478516 A 0.5 0.5 0 0 0 37.501953 88.978516 A 0.5 0.5 0 0 0 38.001953 88.478516 A 0.5 0.5 0 0 0 37.501953 87.978516 z M 18.494141 87.986328 A 0.5 0.5 0 0 0 17.994141 88.486328 A 0.5 0.5 0 0 0 18.494141 88.986328 A 0.5 0.5 0 0 0 18.994141 88.486328 A 0.5 0.5 0 0 0 18.494141 87.986328 z M 62.498047 87.990234 A 0.5 0.5 0 0 0 61.998047 88.490234 A 0.5 0.5 0 0 0 62.498047 88.990234 A 0.5 0.5 0 0 0 62.998047 88.490234 A 0.5 0.5 0 0 0 62.498047 87.990234 z M 81.501953 88 A 0.5 0.5 0 0 0 81.001953 88.5 A 0.5 0.5 0 0 0 81.501953 89 A 0.5 0.5 0 0 0 82.001953 88.5 A 0.5 0.5 0 0 0 81.501953 88 z M 31.492188 88.003906 A 0.5 0.5 0 0 0 30.992188 88.503906 A 0.5 0.5 0 0 0 31.492188 89.003906 A 0.5 0.5 0 0 0 31.992188 88.503906 A 0.5 0.5 0 0 0 31.492188 88.003906 z M 68.501953 88.007812 A 0.5 0.5 0 0 0 68.001953 88.507812 A 0.5 0.5 0 0 0 68.501953 89.007812 A 0.5 0.5 0 0 0 69.001953 88.507812 A 0.5 0.5 0 0 0 68.501953 88.007812 z M 21.001953 88.966797 L 22.115234 88.966797 L 22.115234 89.964844 L 21.001953 89.964844 L 21.001953 88.966797 z M 23.115234 88.966797 L 24.615234 88.966797 L 24.615234 89.964844 L 23.115234 89.964844 L 23.115234 88.966797 z M 25.615234 88.966797 L 27.115234 88.966797 L 27.115234 89.964844 L 25.615234 89.964844 L 25.615234 88.966797 z M 28.115234 88.966797 L 29.001953 88.966797 L 29.001953 89.964844 L 28.115234 89.964844 L 28.115234 88.966797 z M 71.001953 88.966797 L 72.115234 88.966797 L 72.115234 89.939453 L 71.001953 89.939453 L 71.001953 88.966797 z M 73.115234 88.966797 L 74.615234 88.966797 L 74.615234 89.939453 L 73.115234 89.939453 L 73.115234 88.966797 z M 75.615234 88.966797 L 77.115234 88.966797 L 77.115234 89.939453 L 75.615234 89.939453 L 75.615234 88.966797 z M 78.115234 88.966797 L 79.001953 88.966797 L 79.001953 89.939453 L 78.115234 89.939453 L 78.115234 88.966797 z "/><path id="path349" fill="#594454" d="m 29.467998,64.979 c -0.276,0 -0.5,-0.224 -0.5,-0.5 l 0,-2.382 c 0,-0.835 -0.414,-1.611 -1.107,-2.077 l -2.893,-1.939 -2.893,1.939 c -0.693,0.466 -1.107,1.242 -1.107,2.077 l 0,2.382 c 0,0.276 -0.224,0.5 -0.5,0.5 -0.276,0 -0.5,-0.224 -0.5,-0.5 l 0,-2.382 c 0,-1.169 0.58,-2.256 1.551,-2.907 l 3.171,-2.126 c 0.168,-0.113 0.389,-0.113 0.557,0 l 3.171,2.126 c 0.97,0.651 1.55,1.738 1.55,2.907 l 0,2.382 c 0,0.276 -0.224,0.5 -0.5,0.5 z"/><path id="rect381" fill="none" d="m 16.467999,66.469994 17,0 0,24 -17,0 z"/><path id="path385" fill="#594454" d="m 26.467998,63.02 -3,0 c -0.276,0 -0.5,-0.224 -0.5,-0.5 l 0,-2.041 c 0,-0.276 0.224,-0.5 0.5,-0.5 l 3,0 c 0.276,0 0.5,0.224 0.5,0.5 l 0,2.041 c 0,0.276 -0.224,0.5 -0.5,0.5 z m -2.5,-1 2,0 0,-1.041 -2,0 0,1.041 z"/><path id="path389" fill="#594454" d="m 76.467998,63.02 -3,0 c -0.276,0 -0.5,-0.224 -0.5,-0.5 l 0,-2.041 c 0,-0.276 0.224,-0.5 0.5,-0.5 l 3,0 c 0.276,0 0.5,0.224 0.5,0.5 l 0,2.041 c 0,0.276 -0.224,0.5 -0.5,0.5 z m -2.5,-1 2,0 0,-1.041 -2,0 0,1.041 z"/><path id="path393" fill="#594454" d="m 41.967998,32.948 c -0.827,0 -1.5,0.673 -1.5,1.5 l 0,4 c 0,0.276 0.224,0.5 0.5,0.5 l 2,0 c 0.276,0 0.5,-0.224 0.5,-0.5 l 0,-4 c 0,-0.827 -0.673,-1.5 -1.5,-1.5 z m 0.5,5 -1,0 0,-3.5 c 0,-0.275 0.225,-0.5 0.5,-0.5 0.275,0 0.5,0.225 0.5,0.5 l 0,3.5 z"/><path id="path395" fill="#594454" d="m 57.967998,32.948 c -0.827,0 -1.5,0.673 -1.5,1.5 l 0,4 c 0,0.276 0.224,0.5 0.5,0.5 l 2,0 c 0.276,0 0.5,-0.224 0.5,-0.5 l 0,-4 c 0,-0.827 -0.673,-1.5 -1.5,-1.5 z m 0.5,5 -1,0 0,-3.5 c 0,-0.275 0.225,-0.5 0.5,-0.5 0.275,0 0.5,0.225 0.5,0.5 l 0,3.5 z"/><path id="path397" fill="#594454" d="m 42.967998,25.948 c 0.276,0 0.5,-0.224 0.5,-0.5 l 0,-1 c 0,-0.827 -0.673,-1.5 -1.5,-1.5 -0.827,0 -1.5,0.673 -1.5,1.5 l 0,1 c 0,0.276 0.224,0.5 0.5,0.5 l 2,0 z m -1.5,-1.5 c 0,-0.275 0.225,-0.5 0.5,-0.5 0.275,0 0.5,0.225 0.5,0.5 l 0,0.5 -1,0 0,-0.5 z"/><path id="path399" fill="#594454" d="m 48.967998,25.948 2,0 c 0.276,0 0.5,-0.224 0.5,-0.5 l 0,-1 c 0,-0.827 -0.673,-1.5 -1.5,-1.5 -0.827,0 -1.5,0.673 -1.5,1.5 l 0,1 c 0,0.276 0.224,0.5 0.5,0.5 z m 0.5,-1.5 c 0,-0.275 0.225,-0.5 0.5,-0.5 0.275,0 0.5,0.225 0.5,0.5 l 0,0.5 -1,0 0,-0.5 z"/><path id="path401" fill="#594454" d="m 56.967998,25.948 2,0 c 0.276,0 0.5,-0.224 0.5,-0.5 l 0,-1 c 0,-0.827 -0.673,-1.5 -1.5,-1.5 -0.827,0 -1.5,0.673 -1.5,1.5 l 0,1 c 0,0.276 0.224,0.5 0.5,0.5 z m 0.5,-1.5 c 0,-0.275 0.225,-0.5 0.5,-0.5 0.275,0 0.5,0.225 0.5,0.5 l 0,0.5 -1,0 0,-0.5 z"/><path id="path403" fill="#594454" d="m 49.967998,32.948 c -1.93,0 -3.5,1.57 -3.5,3.5 0,1.93 1.57,3.5 3.5,3.5 1.93,0 3.5,-1.57 3.5,-3.5 0,-1.93 -1.57,-3.5 -3.5,-3.5 z m 0,6 c -1.379,0 -2.5,-1.121 -2.5,-2.5 0,-1.379 1.121,-2.5 2.5,-2.5 1.379,0 2.5,1.121 2.5,2.5 0,1.379 -1.121,2.5 -2.5,2.5 z"/><path id="path405" fill="#594454" d="m 50.467998,35.948 0,-1 c 0,-0.276 -0.224,-0.5 -0.5,-0.5 -0.276,0 -0.5,0.224 -0.5,0.5 l 0,1.5 c 0,0.276 0.224,0.5 0.5,0.5 l 1.5,0 c 0.276,0 0.5,-0.224 0.5,-0.5 0,-0.276 -0.224,-0.5 -0.5,-0.5 l -1,0 z"/><path id="path433" fill="#594454" d="m 53.500998,60.01 -7,0 c -0.276,0 -0.5,0.224 -0.5,0.5 l 0,2 c 0,0.276 0.224,0.5 0.5,0.5 l 7,0 c 0.276,0 0.5,-0.224 0.5,-0.5 l 0,-2 c 0,-0.276 -0.223,-0.5 -0.5,-0.5 z m -0.5,2 -6,0 0,-1 6,0 0,1 z"/></svg>