<?xml version="1.0" encoding="utf-8"?>
<!-- Svg Vector Icons : http://www.onlinewebfonts.com/icon -->
<!DOCTYPE svg PUBLIC "-//W3C//DTD SVG 1.1//EN" "http://www.w3.org/Graphics/SVG/1.1/DTD/svg11.dtd">
<svg version="1.1" xmlns="http://www.w3.org/2000/svg" xmlns:xlink="http://www.w3.org/1999/xlink" x="0px" y="0px" viewBox="0 0 1000 1000" enable-background="new 0 0 1000 1000" xml:space="preserve">
<metadata> Svg Vector Icons : http://www.onlinewebfonts.com/icon </metadata>
<g><g transform="translate(0.000000,511.000000) scale(0.100000,-0.100000)"><path d="M4857.6,4771.3c-82.9-43.7-139.7-124.4-161.5-229.2c-26.2-133.2,0-137.5,296.9-45.8c148.4,45.8,277.2,91.7,288.1,102.6c30.5,28.4-52.4,133.2-141.9,176.8C5045.3,4825.9,4953.6,4823.7,4857.6,4771.3z"/><path d="M7138.7,4670.9c-1617.5-93.9-3475.1-757.5-4568.8-1637.2c-519.5-416.9-925.6-949.6-1074-1412.3c-41.5-124.4-48-185.5-39.3-371.1c10.9-266.3,58.9-392.9,183.4-486.8c76.4-58.9,96-63.3,268.5-63.3c157.2,2.2,211.7,10.9,327.4,63.3c176.8,76.4,384.2,203,646.1,392.9c183.4,135.3,207.4,159.4,207.4,218.3c0,117.9,65.5,344.9,144.1,508.6c72,152.8,316.5,486.8,355.8,486.8c10.9,0,0-72-21.8-157.2c-67.7-257.6-128.8-648.3-135.3-847l-4.4-185.5l131-28.4c76.4-17.5,281.6-32.7,491.1-32.7c342.7-4.4,368.9-2.2,530.4,56.7c360.2,126.6,609,353.6,801.1,733.4l69.8,137.5l-19.7,537c-19.6,491.2-17.4,602.5,8.7,539.2c4.4-10.9,124.4-213.9,264.1-447.5l255.4-425.7l152.8-80.8c469.3-251,910.2-270.7,1353.4-63.3c264.1,124.4,687.6,460.6,687.6,543.5c0,61.1-312.2,423.5-567.5,665.8c-148.4,137.5-213.9,211.7-187.7,211.7c76.4,0,421.3-128.8,558.8-209.6c78.6-43.7,211.7-150.6,294.7-235.7l152.8-155h436.6c556.6,2.2,766.2,48,934.2,205.2c93.9,85.1,124.5,161.5,124.5,301.2c0,146.2-43.7,255.4-179,445.3c-257.5,368.9-923.3,663.6-1709.2,759.6C7806.6,4664.4,7326.4,4681.8,7138.7,4670.9z"/><path d="M5831.1,1451.2c-117.9-102.6-120.1-168.1-17.5-506.4C6706.4-1971.6,7459.5-4418.6,7477-4457.9c10.9-26.2,52.4-67.7,91.7-91.7c183.4-111.3,410.4,8.8,410.4,216.1c0,34.9-231.4,818.6-515.1,1741.9c-281.6,921.2-665.8,2172-851.3,2778.8c-185.5,606.8-349.3,1128.5-362.4,1163.5C6182.5,1523.2,5970.8,1575.6,5831.1,1451.2z"/><path d="M214.6,309.5C26.9,224.4,55.2,84.7,408.9-664c255.4-537,670.1-1215.9,984.5-1606.6c416.9-515.2,884.1-912.5,1344.7-1143.8c100.4-50.2,131-74.2,109.1-87.3c-17.5-8.8-502.1-155-1078.3-327.4C1103-4025.7,703.5-4156.6,675.2-4182.9c-128.8-115.7-34.9-347.1,137.5-344.9c21.8,2.2,652.7,185.5,1403.6,410.4c1292.3,388.6,1370.8,408.2,1473.4,390.7c268.5-45.8,866.6-13.1,1135.1,63.3c34.9,8.7,163.7-78.6,545.7-375.4c277.2-213.9,534.8-410.4,576.3-438.8c102.6-69.8,187.7-65.5,266.3,13.1c67.7,67.7,80.8,139.7,39.3,224.8c-10.9,28.4-218.3,200.8-458.4,384.2c-237.9,185.5-434.4,342.7-434.4,349.3c0,8.8,96,63.3,213.9,122.2c242.3,120.1,598.1,349.3,689.8,445.3c128.8,137.5,82.9,360.2-89.5,432.2c-100.4,43.7-181.2,28.4-296.9-56.8c-67.7-48-242.3-109.1-654.9-233.6c-493.3-148.4-569.7-163.7-609-139.7C4434.1-2825.1,659.9,115.2,635.9,163.3C555.1,316.1,371.7,379.4,214.6,309.5z M2626.7-1919.2c840.4-648.3,1521.5-1185.3,1514.9-1191.8c-45.8-43.7-283.8-87.3-395.1-74.2c-742.2,93.9-1528,659.2-2152.3,1549.8c-257.6,366.7-595.9,951.8-530.4,914.6C1083.4-731.7,1786.2-1270.9,2626.7-1919.2z"/></g></g>
</svg>